<svg width="176" height="72" viewBox="0 0 176 72" fill="none" xmlns="http://www.w3.org/2000/svg">
<path fill-rule="evenodd" clip-rule="evenodd" d="M175.963 25.3914C175.971 25.5943 175.98 25.8013 175.997 26.0084C175.997 26.0633 175.998 26.1188 175.999 26.1749C176.003 26.5151 176.007 26.8738 175.856 27.2066V27.3476V28.1229C175.786 30.3079 175.433 32.4929 174.834 34.6074H174.869L174.834 34.6779C174.235 36.7924 173.389 38.8716 172.262 40.7747L172.226 40.8452L172.156 40.9509C169.759 44.9684 166.411 48.3164 162.394 50.7128L162.323 50.7481C158.693 52.8273 154.641 54.096 150.447 54.378H120.491C118.377 54.3075 116.333 53.9198 114.359 53.215C111.857 52.334 109.602 50.9948 107.628 49.2679L107.593 49.2327L107.558 49.1974C107.452 49.2856 107.346 49.3825 107.241 49.4794C107.135 49.5763 107.029 49.6732 106.923 49.7613C106.888 49.7966 106.818 49.867 106.747 49.9023C106.43 50.1842 106.078 50.4309 105.725 50.6776C105.631 50.7717 105.537 50.8341 105.443 50.8968C105.396 50.9282 105.349 50.9595 105.302 50.9948C105.214 51.0476 105.135 51.1005 105.056 51.1534C104.976 51.2062 104.897 51.2591 104.809 51.312C104.738 51.3472 104.668 51.3912 104.597 51.4353C104.527 51.4793 104.456 51.5234 104.386 51.5586C104.27 51.6231 104.158 51.688 104.049 51.7507C103.862 51.8593 103.684 51.9629 103.505 52.052C102.941 52.3692 102.342 52.6511 101.708 52.8978C101.622 52.9405 101.537 52.9704 101.444 53.0028C101.383 53.024 101.319 53.0462 101.249 53.074C101.15 53.0987 101.052 53.141 100.941 53.1882C100.894 53.2083 100.844 53.2291 100.791 53.2502C100.668 53.2855 100.553 53.3207 100.439 53.356C100.324 53.3912 100.21 53.4265 100.087 53.4617C99.9103 53.5322 99.6988 53.6027 99.5226 53.6379C99.505 53.6379 99.4786 53.6467 99.4522 53.6555C99.4257 53.6643 99.3993 53.6731 99.3817 53.6731C99.2055 53.7436 98.994 53.8141 98.8178 53.8494L98.1482 53.9903C98.0777 53.9903 98.0072 53.9903 97.9368 54.0256L97.1967 54.1665L96.4566 54.2723H96.3861C96.3156 54.2723 96.254 54.2811 96.1923 54.2899C96.1306 54.2987 96.0689 54.3075 95.9985 54.3075C95.928 54.3427 95.8927 54.3427 95.8223 54.3427C95.7341 54.3427 95.646 54.3515 95.5579 54.3604C95.4698 54.3692 95.3817 54.378 95.2936 54.378H95.1879C95.1213 54.378 95.0547 54.3857 94.9846 54.3942C94.906 54.4034 94.8228 54.4132 94.7298 54.4132H79.6463C77.5318 54.3427 75.4878 53.9551 73.5142 53.2502C71.0473 52.3692 68.7566 50.9948 66.7831 49.2679L66.7126 49.2327L66.6773 49.1974C66.6421 49.2327 66.6069 49.2591 66.5716 49.2856C66.5364 49.312 66.5011 49.3384 66.4659 49.3737L66.2192 49.5851C65.7963 49.9375 65.3734 50.2547 64.9505 50.5719C64.7743 50.6776 64.6333 50.7833 64.4924 50.889C64.1047 51.1357 63.717 51.3824 63.3294 51.5939C63.2941 51.6291 63.2501 51.6556 63.206 51.682C63.162 51.7084 63.1179 51.7348 63.0827 51.7701C62.6245 52.052 62.1312 52.2987 61.6378 52.5102L60.9682 52.7921C60.651 52.9331 60.3338 53.074 59.9814 53.1798L59.629 53.3207C59.5409 53.35 59.4588 53.3736 59.3802 53.3958C59.2706 53.4268 59.1677 53.4557 59.0651 53.4969C58.7832 53.5674 58.5013 53.6379 58.1841 53.7436L57.9374 53.8141C57.7259 53.8494 57.5057 53.8934 57.2854 53.9375C57.0652 53.9815 56.8449 54.0256 56.6335 54.0608C56.5277 54.0784 56.4132 54.096 56.2987 54.1137C56.1841 54.1313 56.0696 54.1489 55.9639 54.1665L55.8581 54.2018C55.7172 54.237 55.5762 54.2723 55.4352 54.2723H55.3295C55.2943 54.2723 55.2502 54.2811 55.2062 54.2899C55.1621 54.2987 55.1181 54.3075 55.0828 54.3075C54.9595 54.3251 54.8273 54.3339 54.6952 54.3427C54.563 54.3515 54.4308 54.3604 54.3075 54.378H54.237C54.1489 54.378 54.0696 54.3868 53.9903 54.3956C53.911 54.4044 53.8317 54.4132 53.7436 54.4132H20.3697C20.0174 54.4132 19.6648 54.4132 19.3125 54.378C19.1425 54.3611 18.9972 54.3523 18.8567 54.3438C18.7058 54.3346 18.5604 54.3258 18.3962 54.3075H18.2905L17.3389 54.2018C17.1627 54.2018 16.9865 54.1665 16.8455 54.1313C16.7751 54.1137 16.7134 54.1049 16.6517 54.096C16.59 54.0872 16.5284 54.0784 16.4579 54.0608L16.2464 54.0256L15.9997 53.9551C15.9469 53.9375 15.8852 53.9286 15.8235 53.9198C15.7619 53.911 15.7002 53.9022 15.6473 53.8846L15.2949 53.7789L15.2244 53.7436L15.0835 53.7084C14.872 53.6379 14.6253 53.5674 14.3786 53.4969C14.1672 53.3912 13.9557 53.3207 13.709 53.2502H13.6738C12.4403 52.7921 11.2069 52.2282 10.0791 51.5586C10.0092 51.5167 9.93933 51.4804 9.87163 51.4452C9.76865 51.3916 9.67079 51.3405 9.58575 51.2767C9.42716 51.171 9.27738 51.0653 9.12761 50.9595C8.97783 50.8538 8.82805 50.7481 8.66947 50.6424C8.49326 50.5366 8.35229 50.4309 8.21132 50.3252C8.1056 50.2547 8.00868 50.1754 7.91177 50.0961C7.81485 50.0168 7.71794 49.9375 7.61221 49.867C7.04835 49.4441 6.55496 48.986 6.06158 48.4926L5.56819 47.9992L5.53295 47.964C3.59466 45.8847 2.1145 43.453 1.16298 40.7747C0.845801 39.8584 0.563868 38.9069 0.387659 37.9553C0.317176 37.6382 0.246692 37.2857 0.21145 36.9686C0.194708 36.8681 0.18592 36.7754 0.177528 36.6873C0.168255 36.5897 0.159467 36.497 0.140967 36.4047V36.299L0.0704835 35.6999C0.0352417 35.136 0 34.5721 0 34.0083V33.973C0.0352417 33.9025 0.0352417 33.8321 0.0352417 33.7616V33.1272C0.0352417 33.2682 0.0264313 33.4092 0.0176209 33.5501C0.00881043 33.6911 0 33.8321 0 33.973V25.4093C0 24.9864 0.176209 24.5987 0.458142 24.2815C0.740076 24.0349 1.09249 23.8586 1.44491 23.8234H1.62112H12.0527H12.2289C12.5813 23.8586 12.9337 24.0349 13.1804 24.2815C13.4271 24.5282 13.6033 24.8454 13.6385 25.1978V25.4093V33.973C13.6385 37.7086 16.6693 40.7747 20.4402 40.7747H52.7569H53.1798H53.2503H53.6027C54.0256 40.7394 54.4837 40.6689 54.9066 40.5632L55.2238 40.4575L55.541 40.3518C55.5892 40.3324 55.6403 40.313 55.6936 40.2929C55.8335 40.2397 55.9868 40.1819 56.1401 40.1051C56.2458 40.0698 56.3163 40.0346 56.422 39.9641C56.4749 39.9289 56.5189 39.9024 56.563 39.876C56.607 39.8496 56.6511 39.8231 56.7039 39.7879C56.7744 39.7527 56.8801 39.6822 56.9506 39.6117C57.1268 39.506 57.303 39.365 57.4793 39.224C57.6555 39.1183 57.8317 38.9773 57.9726 38.8011C58.0079 38.7659 58.0431 38.7218 58.0784 38.6778C58.1136 38.6337 58.1489 38.5897 58.1841 38.5544C58.3955 38.343 58.5717 38.0963 58.748 37.8496L58.9242 37.6029C59.2061 37.18 59.4176 36.7219 59.5938 36.2285C59.6406 36.158 59.6565 36.0875 59.672 36.017C59.6798 35.9818 59.6879 35.9466 59.6995 35.9113C59.77 35.7351 59.8052 35.5589 59.8405 35.3827V35.3122C59.8581 35.2065 59.8669 35.1096 59.8757 35.0126C59.8845 34.9157 59.8933 34.8188 59.9109 34.7131V34.6779C59.9109 34.6074 59.9109 34.5369 59.9462 34.4664V34.3254V20.1935C59.9462 20.1583 59.955 20.1318 59.9638 20.1054C59.9726 20.079 59.9814 20.0525 59.9814 20.0173V19.9821C59.9814 19.9116 59.9814 19.8411 60.0167 19.7706L60.0519 19.6296C60.1576 19.4182 60.2633 19.242 60.4043 19.101C60.6862 18.8543 61.0387 18.6781 61.3911 18.6429H61.5673H71.9988H72.1751C72.5275 18.6781 72.8799 18.8543 73.1266 19.101C73.1971 19.1715 73.2675 19.242 73.3028 19.3125C73.338 19.3477 73.3733 19.4181 73.4085 19.4885L73.4438 19.5592C73.4614 19.5944 73.4702 19.6296 73.479 19.6649C73.4878 19.7001 73.4966 19.7354 73.5142 19.7706C73.5495 19.8411 73.5847 19.9468 73.5847 20.0173V20.0525V20.2992V33.6558V34.0083V34.3607V34.5016V34.5369C73.5847 34.7836 73.62 35.0655 73.6905 35.3475C73.8314 36.158 74.1486 36.9333 74.6067 37.6382C74.6265 37.6776 74.6575 37.7175 74.6931 37.7633C74.7213 37.7989 74.7519 37.8383 74.7829 37.8849C74.8316 37.9821 74.8971 38.0628 74.9676 38.1495C74.9993 38.1886 75.0321 38.2288 75.0649 38.2725C75.0871 38.3021 75.1075 38.33 75.1273 38.3564C75.2016 38.4575 75.2633 38.5414 75.3468 38.6249H75.382L75.5935 38.8364C76.7565 39.9994 78.3071 40.6689 79.9635 40.7747H80.3864H80.4921H80.8093H94.4478C94.5007 40.7747 94.5536 40.7659 94.6064 40.7571C94.6593 40.7482 94.7121 40.7394 94.765 40.7394C98.0425 40.387 100.615 37.7439 100.862 34.4312C100.862 34.3646 100.87 34.2981 100.878 34.2278C100.887 34.1492 100.897 34.066 100.897 33.973V20.2288C100.897 20.0878 100.932 19.9116 100.968 19.7706C101.038 19.5239 101.179 19.2772 101.355 19.101C101.637 18.8191 102.06 18.6429 102.483 18.6429H113.091C113.655 18.7134 114.183 19.101 114.395 19.6296C114.395 19.6473 114.403 19.6737 114.412 19.7001C114.421 19.7266 114.43 19.753 114.43 19.7706C114.465 19.9116 114.5 20.0525 114.5 20.2288V34.255C114.677 37.7086 117.461 40.4927 120.914 40.7042H121.337H121.408H121.478H148.65C152.773 40.7042 156.685 38.8716 159.257 35.6646C159.293 35.6118 159.328 35.5677 159.363 35.5237C159.398 35.4796 159.434 35.4356 159.469 35.3827L159.504 35.3122L159.539 35.277C159.575 35.2241 159.619 35.1624 159.663 35.1008C159.707 35.0391 159.751 34.9774 159.786 34.9245C159.927 34.7836 160.033 34.6074 160.138 34.4312L160.456 33.9025L160.491 33.8321C160.526 33.7792 160.552 33.7263 160.579 33.6735C160.605 33.6206 160.632 33.5677 160.667 33.5149C160.738 33.4092 160.808 33.2683 160.878 33.1274C160.949 33.057 160.984 32.951 161.019 32.8453C161.045 32.7821 161.074 32.7143 161.106 32.6436C161.161 32.5173 161.221 32.3818 161.266 32.2462C161.284 32.1757 161.31 32.114 161.337 32.0523C161.363 31.9907 161.389 31.929 161.407 31.8585C161.425 31.788 161.451 31.7264 161.478 31.6647C161.504 31.603 161.53 31.5413 161.548 31.4709C161.56 31.4245 161.571 31.3772 161.583 31.3292C161.643 31.0856 161.706 30.8254 161.795 30.5898L161.83 30.4841L161.936 30.0964L162.006 29.7793C162.041 29.6735 162.077 29.5678 162.077 29.4621C162.112 29.2506 162.147 29.0392 162.147 28.8277C162.182 28.6163 162.218 28.4048 162.218 28.1934C162.253 27.841 162.253 27.4885 162.253 27.1361C162.253 26.9247 162.253 26.7132 162.218 26.5018V26.4313V26.3608C162.218 26.1141 162.182 25.8674 162.147 25.6207C162.13 25.5326 162.121 25.4445 162.112 25.3564C162.103 25.2683 162.094 25.1802 162.077 25.0921C162.077 25.0216 162.077 24.9864 162.041 24.9159V24.8454C162.041 24.8041 162.029 24.7749 162.019 24.7508C162.012 24.7336 162.006 24.719 162.006 24.7044L161.971 24.5635C161.971 24.493 161.971 24.4225 161.936 24.3168C161.936 24.1758 161.9 24.0701 161.865 23.9644V23.8586L161.795 23.6472C161.795 23.612 161.795 23.5415 161.76 23.5062C161.76 23.4005 161.724 23.2948 161.689 23.1891V23.1538L161.654 23.0128C161.654 22.9613 161.635 22.9096 161.611 22.8442C161.602 22.8203 161.593 22.7945 161.583 22.7662L161.548 22.6957C161.548 22.6252 161.548 22.5899 161.513 22.5547L161.478 22.4842L161.442 22.3785C161.372 22.2728 161.337 22.167 161.301 22.0613V22.0261C161.301 21.9745 161.282 21.9417 161.258 21.9003C161.25 21.8851 161.24 21.8688 161.231 21.8499C161.21 21.798 161.189 21.74 161.168 21.6795C161.116 21.5345 161.059 21.3751 160.984 21.2508C160.914 21.0393 160.808 20.8279 160.702 20.6516L160.667 20.6164C160.561 20.4754 160.491 20.3345 160.42 20.1935C160.404 20.1686 160.385 20.1417 160.365 20.1133C160.302 20.0213 160.228 19.9136 160.174 19.8058L160.138 19.7706C160.103 19.7001 160.068 19.6296 159.997 19.5592C159.98 19.5415 159.962 19.5151 159.945 19.4887C159.927 19.4622 159.909 19.4358 159.892 19.4182C159.843 19.3209 159.778 19.2404 159.707 19.1534C159.675 19.1144 159.643 19.0742 159.61 19.0305L159.575 18.9953L159.469 18.8543L159.363 18.7486L159.328 18.7134L159.222 18.6076L159.187 18.5371C159.152 18.4843 159.116 18.4402 159.081 18.3962C159.046 18.3521 159.011 18.3081 158.975 18.2552C158.887 18.1671 158.808 18.079 158.729 17.9909C158.649 17.9028 158.57 17.8147 158.482 17.7266L158.271 17.5151C158.187 17.4106 158.079 17.3184 157.967 17.224C157.891 17.1592 157.814 17.0934 157.742 17.0218C157.689 16.9689 157.627 16.916 157.566 16.8632C157.504 16.8103 157.442 16.7574 157.39 16.7046C157.072 16.4226 156.72 16.1407 156.332 15.894C155.945 15.6473 155.557 15.4006 155.169 15.1892C155.064 15.1363 154.967 15.0923 154.87 15.0482C154.773 15.0042 154.676 14.9601 154.57 14.9072L152.702 14.1319L152.667 14.0967L152.244 13.991L151.998 13.9205C151.846 13.8599 151.668 13.8253 151.509 13.7944C151.484 13.7894 151.458 13.7844 151.434 13.7795H151.398C151.316 13.763 151.241 13.7542 151.17 13.7459C151.09 13.7365 151.015 13.7277 150.94 13.709L150.764 13.6738H150.729C150.553 13.6385 150.376 13.6033 150.2 13.6033C150.134 13.6033 150.059 13.5954 149.981 13.5872C149.893 13.5779 149.8 13.5681 149.707 13.5681C149.425 13.5328 149.178 13.5328 148.896 13.5328H144.385C144.332 13.5328 144.288 13.524 144.244 13.5152C144.2 13.5064 144.156 13.4976 144.103 13.4976C143.152 13.3566 142.412 12.6165 142.271 11.665C142.236 11.5593 142.236 11.4888 142.236 11.3832V2.1145C142.236 2.06164 142.244 2.01759 142.253 1.97354C142.262 1.92948 142.271 1.88543 142.271 1.83257C142.412 0.881043 143.152 0.140967 144.103 0H144.35H148.896C149.425 0 149.954 0 150.447 0.0704834C154.676 0.317176 158.799 1.55064 162.5 3.73562L162.57 3.77086C165.918 5.7444 168.808 8.38753 171.063 11.5593C171.557 12.2288 171.98 12.9335 172.403 13.6383L172.438 13.709C174.27 16.8808 175.433 20.405 175.856 24.0701C175.874 24.1934 175.883 24.308 175.891 24.4225C175.9 24.5371 175.909 24.6516 175.927 24.7749C175.945 24.9728 175.953 25.1799 175.963 25.3914ZM37.7439 58.0784C33.9025 58.0784 30.8365 61.1796 30.8365 64.9857C30.8365 68.7918 33.9378 71.8931 37.7439 71.8931C41.55 71.8931 44.6513 68.7918 44.6513 64.9857C44.6513 61.1796 41.55 58.0784 37.7439 58.0784ZM98.3244 58.0784C94.4831 58.0784 91.417 61.1796 91.417 64.9857C91.417 68.7918 94.5183 71.8931 98.3244 71.8931C102.131 71.8931 105.232 68.7918 105.232 64.9857C105.232 61.1796 102.131 58.0784 98.3244 58.0784ZM160.456 64.9857C160.456 61.1796 157.354 58.0784 153.548 58.0784C149.742 58.0784 146.641 61.1796 146.641 64.9857C146.641 68.7918 149.742 71.8931 153.548 71.8931C157.354 71.9284 160.456 68.8271 160.456 64.9857ZM87.9986 65.021C87.9986 68.8271 84.8973 71.9284 81.0912 71.9284C77.2851 71.9284 74.1838 68.8271 74.1838 65.021C74.1838 61.2149 77.2851 58.1136 81.0912 58.1136C84.8973 58.1136 87.9986 61.2149 87.9986 65.021Z" fill="#E31E2D"/>
</svg>
