<svg id="OL" xmlns="http://www.w3.org/2000/svg" viewBox="0 0 119.66 40"><defs><style>.cls-1{fill:#a6a6a6;}.cls-2{fill:#fff;}</style></defs><path class="cls-1" d="M9.53,0h-2a13.39,13.39,0,0,0-2,.18,6.64,6.64,0,0,0-1.9.63A6.07,6.07,0,0,0,2,2,6.07,6.07,0,0,0,.82,3.62a6.74,6.74,0,0,0-.63,1.9,12.18,12.18,0,0,0-.17,2c0,.31,0,.62,0,.92V31.56c0,.31,0,.61,0,.92a12.18,12.18,0,0,0,.17,2,6.7,6.7,0,0,0,.63,1.91A6,6,0,0,0,2,38a6.07,6.07,0,0,0,1.62,1.18,6.64,6.64,0,0,0,1.9.63,13.39,13.39,0,0,0,2,.18H112.14a13.39,13.39,0,0,0,2-.18,6.8,6.8,0,0,0,1.91-.63A6.24,6.24,0,0,0,117.67,38a6.31,6.31,0,0,0,1.8-3.52,13.39,13.39,0,0,0,.18-2c0-.31,0-.61,0-.92V8.44c0-.3,0-.61,0-.92a13.39,13.39,0,0,0-.18-2,6.72,6.72,0,0,0-.62-1.9,6.53,6.53,0,0,0-2.8-2.8,6.8,6.8,0,0,0-1.91-.63,13.39,13.39,0,0,0-2-.18h-2"/><path d="M111.21.88h.92a13,13,0,0,1,1.86.16,5.85,5.85,0,0,1,1.67.55A5.58,5.58,0,0,1,118.07,4a5.92,5.92,0,0,1,.54,1.65,13.14,13.14,0,0,1,.17,1.88v.89c0,.38,0,.74,0,1.1V30.46c0,.37,0,.72,0,1.08v.93a12.72,12.72,0,0,1-.17,1.85,5.73,5.73,0,0,1-.54,1.67,5.6,5.6,0,0,1-1,1.39,5.41,5.41,0,0,1-1.4,1A5.69,5.69,0,0,1,114,39a11.8,11.8,0,0,1-1.87.16l-.9,0H8.44l-.9,0A11.7,11.7,0,0,1,5.67,39,5.79,5.79,0,0,1,4,38.4a5.5,5.5,0,0,1-1.39-1,5.19,5.19,0,0,1-1-1.4,5.69,5.69,0,0,1-.55-1.66,13,13,0,0,1-.16-1.87c0-.21,0-.91,0-.91V8.44s0-.69,0-.89a13,13,0,0,1,.16-1.87A5.69,5.69,0,0,1,1.6,4a5.38,5.38,0,0,1,1-1.4A5.59,5.59,0,0,1,4,1.6a5.69,5.69,0,0,1,1.66-.55A13,13,0,0,1,7.54.89h.91"/><g id="_Group_" data-name=" Group "><g id="_Group_2" data-name=" Group 2"><path id="_Path_" data-name=" Path " class="cls-2" d="M107.26,20.3a4.93,4.93,0,0,1,2.36-4.15,5.08,5.08,0,0,0-4-2.16c-1.67-.18-3.3,1-4.16,1s-2.19-1-3.61-1a5.31,5.31,0,0,0-4.47,2.73c-1.93,3.34-.49,8.27,1.36,11,.93,1.33,2,2.81,3.43,2.76s1.9-.89,3.58-.89,2.14.89,3.59.85,2.43-1.33,3.32-2.67a10.85,10.85,0,0,0,1.52-3.09A4.78,4.78,0,0,1,107.26,20.3Z"/><path id="_Path_2" data-name=" Path 2" class="cls-2" d="M104.53,12.21a4.86,4.86,0,0,0,1.11-3.49,5,5,0,0,0-3.21,1.66,4.63,4.63,0,0,0-1.14,3.36A4.11,4.11,0,0,0,104.53,12.21Z"/></g></g><path class="cls-2" d="M17.2,27.14H12.46L11.33,30.5h-2l4.49-12.42h2.08L20.37,30.5h-2ZM13,25.59h3.76l-1.85-5.45h0Z"/><path class="cls-2" d="M30.06,26c0,2.81-1.51,4.62-3.78,4.62A3.07,3.07,0,0,1,23.43,29h0v4.48H21.53v-12h1.8V23h0a3.19,3.19,0,0,1,2.88-1.6C28.54,21.35,30.06,23.16,30.06,26Zm-1.91,0c0-1.83-.95-3-2.4-3s-2.37,1.23-2.37,3S24.33,29,25.75,29,28.15,27.82,28.15,26Z"/><path class="cls-2" d="M40,26c0,2.81-1.51,4.62-3.78,4.62A3.08,3.08,0,0,1,33.39,29h0v4.48H31.49v-12h1.8V23h0a3.19,3.19,0,0,1,2.88-1.6C38.51,21.35,40,23.16,40,26Zm-1.91,0c0-1.83-1-3-2.39-3s-2.38,1.23-2.38,3S34.3,29,35.72,29,38.11,27.82,38.11,26Z"/><path class="cls-2" d="M46.61,27c.13,1.23,1.33,2,3,2s2.69-.81,2.69-1.92-.68-1.54-2.29-1.94l-1.61-.39C46.09,24.28,45,23.22,45,21.49c0-2.15,1.87-3.62,4.52-3.62S54,19.34,54,21.49H52.16c-.12-1.24-1.14-2-2.64-2S47,20.26,47,21.36c0,.87.66,1.39,2.26,1.79l1.36.33c2.55.61,3.61,1.63,3.61,3.44,0,2.33-1.85,3.78-4.79,3.78-2.76,0-4.62-1.42-4.74-3.66Z"/><path class="cls-2" d="M58.24,19.3v2.14H60v1.47H58.24v5c0,.77.35,1.13,1.1,1.13A6,6,0,0,0,60,29v1.46a5.06,5.06,0,0,1-1,.09c-1.83,0-2.55-.69-2.55-2.45V22.91H55.06V21.44h1.31V19.3Z"/><path class="cls-2" d="M61,26c0-2.85,1.68-4.64,4.29-4.64s4.3,1.79,4.3,4.64-1.66,4.64-4.3,4.64S61,28.83,61,26Zm6.7,0c0-1.95-.9-3.11-2.41-3.11S62.85,24,62.85,26s.9,3.11,2.4,3.11,2.41-1.15,2.41-3.11Z"/><path class="cls-2" d="M71.08,21.44h1.77V23h.05a2.15,2.15,0,0,1,2.18-1.63,2.7,2.7,0,0,1,.63.07v1.74a2.35,2.35,0,0,0-.83-.12,1.87,1.87,0,0,0-1.95,1.8c0,.09,0,.19,0,.29V30.5H71.08Z"/><path class="cls-2" d="M84.28,27.84c-.25,1.64-1.85,2.77-3.9,2.77-2.63,0-4.27-1.77-4.27-4.6s1.65-4.68,4.19-4.68,4.08,1.72,4.08,4.47v.63H78v.12a2.35,2.35,0,0,0,2.14,2.55h.29a2.06,2.06,0,0,0,2.1-1.27ZM78,25.13h4.52a2.17,2.17,0,0,0-2-2.29H80.3A2.29,2.29,0,0,0,78,25.12h0Z"/><path class="cls-2" d="M53.79,16.08h-.65c-1.27,0-2.61-.26-2.61-2a9.32,9.32,0,0,1,.54-2.32l.84.23-.12.39a8.17,8.17,0,0,0-.36,1.7c0,1.21,1.16,1.21,2,1.21h.54c.4,0,.94-.15.94-.65V11.18h.93v2.58a1.73,1.73,0,0,0,.64.12h.32v.8h-.32a2.3,2.3,0,0,1-.64-.09v.12C55.79,15.16,55.44,16.08,53.79,16.08Zm-.53-5.84a.56.56,0,0,1-.53-.59.57.57,0,0,1,.59-.54.56.56,0,0,1,.53.56.55.55,0,0,1-.53.57Z"/><path class="cls-2" d="M57.8,13.88a3.9,3.9,0,0,1-.15-1.18,1.86,1.86,0,0,1,1.66-2h.23c1.24,0,1.72,1,1.72,2.21,0,.89-.32,2.09-1.53,2.09a4.56,4.56,0,0,1-1.16-.27h-2v-.8Zm.94,0a2.75,2.75,0,0,0,.93.22c.54,0,.69-.69.69-1.3s-.16-1.42-.87-1.42-.91.6-.91,1.35a3.2,3.2,0,0,0,.16,1.15Z"/><path class="cls-2" d="M67.41,16.08h-.66c-1.27,0-2.61-.26-2.61-2a10.29,10.29,0,0,1,.54-2.32l.85.23-.13.39a7.55,7.55,0,0,0-.35,1.7c0,1.21,1.16,1.21,1.94,1.21h.55c.39,0,.93-.15.93-.65V8.81h.93v4.95a1.73,1.73,0,0,0,.64.12h.32v.8H70a2.3,2.3,0,0,1-.64-.09v.12C69.4,15.16,69.05,16.08,67.41,16.08Z"/><path class="cls-2" d="M73.5,10.69v2.45c0,1-.62,1.54-1.85,1.54H70.2v-.8h1.41c.74,0,.94-.32.94-.87V10.69Zm-2.34,5.94a.55.55,0,0,1-.53-.59.56.56,0,0,1,1.12,0,.54.54,0,0,1-.53.56Zm1.46,0a.56.56,0,1,1,.06-1.12.57.57,0,0,1,.54.56.56.56,0,0,1-.54.56h-.06Z"/><path class="cls-2" d="M74.19,16l.4,0c.77,0,1.15-.44,1.15-1.34v-3.5h.94v2.71h.87v.8h-.88a2.34,2.34,0,0,1-.6,1.61,2.19,2.19,0,0,1-1.51.52c-.2,0-.4,0-.6,0Zm2-5.67a.56.56,0,1,1,.06-1.12.57.57,0,0,1,0,1.13Z"/><path class="cls-2" d="M80.64,14.68a2.21,2.21,0,0,1-1.07-.3,2.56,2.56,0,0,1-1.48.3h-.7v-.8h.76c.71,0,.85-.11.85-.64V10.69h.93v3a1.57,1.57,0,0,0,.71.16h.58v.8ZM79.43,9.82a.57.57,0,0,1-.54-.59.57.57,0,0,1,.6-.53.56.56,0,0,1,.53.55.55.55,0,0,1-.54.57Z"/><path class="cls-2" d="M83.45,10.69v2.45c0,1-.62,1.54-1.85,1.54h-.54v-.8h.51c.74,0,.94-.32.94-.87V10.69Zm-1.39-.87a.56.56,0,1,1,.07-1.12.56.56,0,0,1,.53.55.55.55,0,0,1-.54.57Zm1.47,0A.56.56,0,0,1,83,9.23a.56.56,0,1,1,.58.59Z"/></svg>