<svg id="OL" xmlns="http://www.w3.org/2000/svg" xmlns:xlink="http://www.w3.org/1999/xlink" viewBox="0 0 119.66 40"><defs><style>.cls-1{fill:#a6a6a6;}.cls-10,.cls-2,.cls-3{fill:#fff;}.cls-2{fill-opacity:0;}.cls-4{fill:url(#linear-gradient);}.cls-5{fill:url(#linear-gradient-2);}.cls-6{fill:url(#linear-gradient-3);}.cls-7{fill:url(#linear-gradient-4);}.cls-10,.cls-8,.cls-9{isolation:isolate;}.cls-8{opacity:0.2;}.cls-9{opacity:0.12;}.cls-10{opacity:0.25;}</style><linearGradient id="linear-gradient" x1="19.3" y1="215.33" x2="4.42" y2="230.22" gradientTransform="translate(0 -205.37)" gradientUnits="userSpaceOnUse"><stop offset="0" stop-color="#00a0ff"/><stop offset="0.01" stop-color="#00a1ff"/><stop offset="0.26" stop-color="#00beff"/><stop offset="0.51" stop-color="#00d2ff"/><stop offset="0.76" stop-color="#00dfff"/><stop offset="1" stop-color="#00e3ff"/></linearGradient><linearGradient id="linear-gradient-2" x1="29.99" y1="225.37" x2="8.54" y2="225.37" gradientTransform="translate(0 -205.37)" gradientUnits="userSpaceOnUse"><stop offset="0" stop-color="#ffe000"/><stop offset="0.41" stop-color="#ffbd00"/><stop offset="0.78" stop-color="orange"/><stop offset="1" stop-color="#ff9c00"/></linearGradient><linearGradient id="linear-gradient-3" x1="22" y1="227.39" x2="1.82" y2="247.57" gradientTransform="translate(0 -205.37)" gradientUnits="userSpaceOnUse"><stop offset="0" stop-color="#ff3a44"/><stop offset="1" stop-color="#c31162"/></linearGradient><linearGradient id="linear-gradient-4" x1="6.46" y1="207.81" x2="15.47" y2="216.82" gradientTransform="translate(0 -205.37)" gradientUnits="userSpaceOnUse"><stop offset="0" stop-color="#32a071"/><stop offset="0.07" stop-color="#2da771"/><stop offset="0.48" stop-color="#15cf74"/><stop offset="0.8" stop-color="#06e775"/><stop offset="1" stop-color="#00f076"/></linearGradient></defs><g id="Layer_2" data-name="Layer 2"><g id="artwork"><path class="cls-1" d="M9.53,0h-2a13.39,13.39,0,0,0-2,.18,6.64,6.64,0,0,0-1.9.63A6.07,6.07,0,0,0,2,2,6.07,6.07,0,0,0,.82,3.62a6.74,6.74,0,0,0-.63,1.9,12.18,12.18,0,0,0-.17,2c0,.31,0,.62,0,.92V31.56c0,.31,0,.61,0,.92a12.18,12.18,0,0,0,.17,2,6.7,6.7,0,0,0,.63,1.91A6,6,0,0,0,2,38a6.07,6.07,0,0,0,1.62,1.18,6.64,6.64,0,0,0,1.9.63,13.39,13.39,0,0,0,2,.18H112.14a13.39,13.39,0,0,0,2-.18,6.8,6.8,0,0,0,1.91-.63A6.24,6.24,0,0,0,117.67,38a6.31,6.31,0,0,0,1.8-3.52,13.39,13.39,0,0,0,.18-2c0-.31,0-.61,0-.92V8.44c0-.3,0-.61,0-.92a13.39,13.39,0,0,0-.18-2,6.72,6.72,0,0,0-.62-1.9,6.53,6.53,0,0,0-2.8-2.8,6.8,6.8,0,0,0-1.91-.63,13.39,13.39,0,0,0-2-.18h-2"/><path d="M111.21.88h.92a13,13,0,0,1,1.86.16,5.85,5.85,0,0,1,1.67.55A5.58,5.58,0,0,1,118.07,4a5.92,5.92,0,0,1,.54,1.65,13.14,13.14,0,0,1,.17,1.88v.89c0,.38,0,.74,0,1.1V30.46c0,.37,0,.72,0,1.08v.93a12.72,12.72,0,0,1-.17,1.85,5.73,5.73,0,0,1-.54,1.67,5.6,5.6,0,0,1-1,1.39,5.41,5.41,0,0,1-1.4,1A5.69,5.69,0,0,1,114,39a11.8,11.8,0,0,1-1.87.16l-.9,0H8.44l-.9,0A11.7,11.7,0,0,1,5.67,39,5.79,5.79,0,0,1,4,38.4a5.5,5.5,0,0,1-1.39-1,5.19,5.19,0,0,1-1-1.4,5.69,5.69,0,0,1-.55-1.66,13,13,0,0,1-.16-1.87c0-.21,0-.91,0-.91V8.44s0-.69,0-.89a13,13,0,0,1,.16-1.87A5.69,5.69,0,0,1,1.6,4a5.38,5.38,0,0,1,1-1.4A5.59,5.59,0,0,1,4,1.6a5.69,5.69,0,0,1,1.66-.55A13,13,0,0,1,7.54.89h.91"/><rect class="cls-2" width="119.66" height="40"/><path class="cls-3" d="M60.36,21.6a3.63,3.63,0,0,0-3.72,3.54v.18a3.81,3.81,0,0,0,7.54,1.16,4.5,4.5,0,0,0,0-1.16,3.64,3.64,0,0,0-3.54-3.73Zm0,6a2.3,2.3,0,1,1,2.12-2.47.91.91,0,0,1,0,.17,2.21,2.21,0,0,1-2.12,2.3Zm-8.24-6a3.62,3.62,0,0,0-3.72,3.54v.18a3.81,3.81,0,1,0,7.53,1.16,3.76,3.76,0,0,0,0-1.16,3.63,3.63,0,0,0-3.54-3.73Zm0,6a2.3,2.3,0,1,1,2.12-2.47.91.91,0,0,1,0,.17,2.21,2.21,0,0,1-2.13,2.3Zm-9.84-4.87v1.59h3.9a3.6,3.6,0,0,1-.88,1.95,3.71,3.71,0,0,1-3,1.24,4.26,4.26,0,1,1,2.93-7.44L46.36,19a5.41,5.41,0,0,0-4.08-1.69,5.94,5.94,0,1,0-1.45,11.79,5.86,5.86,0,0,0,1.45,0,5.58,5.58,0,0,0,4.17-1.68,5.78,5.78,0,0,0,1.33-3.73,3.2,3.2,0,0,0-.09-1ZM82.52,24a3.54,3.54,0,0,0-6.82,1.33,3.73,3.73,0,0,0,3.63,3.81h.09a3.8,3.8,0,0,0,3.19-1.68l-1.33-.89a2.12,2.12,0,0,1-1.86,1.06,1.94,1.94,0,0,1-1.77-1.15l5-2.13Zm-5.14,1.24A2,2,0,0,1,79.05,23l.28,0a1.7,1.7,0,0,1,1.42.8Zm-4.16,3.63H74.9V17.78H73.22Zm-2.66-6.47h-.09a2.47,2.47,0,0,0-2-.79,3.63,3.63,0,0,0-3.64,3.63v.09a3.73,3.73,0,0,0,3.64,3.81h0a2.56,2.56,0,0,0,2-.89h.09v.54a2,2,0,0,1-3.9.88l-1.51.62a3.63,3.63,0,0,0,3.37,2.22c2,0,3.54-1.15,3.54-4V21.77h-1.5Zm-2,5.23a2.12,2.12,0,0,1-2-2.2s0-.07,0-.1a2,2,0,1,1,4.08,0h0a2.14,2.14,0,0,1-1.94,2.3Zm21.63-9.84h-4V28.86h1.68V24.7h2.31a3.46,3.46,0,0,0,0-6.92Zm.08,5.32H87.93V19.29h2.39a2,2,0,0,1,1.87,1.95A1.87,1.87,0,0,1,90.32,23.1Zm10.2-1.59a3,3,0,0,0-2.93,1.68l1.42.62a1.62,1.62,0,0,1,1.51-.8,1.6,1.6,0,0,1,1.77,1.4v.2a3.77,3.77,0,0,0-1.77-.44c-1.6,0-3.19.88-3.19,2.48A2.56,2.56,0,0,0,100.06,29h0A2.22,2.22,0,0,0,102.2,28h.09v.88h1.6V24.61a3.1,3.1,0,0,0-3.09-3.11Zm-.18,6.11c-.62,0-1.33-.26-1.33-1s1-1.15,1.77-1.15a3.42,3.42,0,0,1,1.51.35A2,2,0,0,1,100.34,27.62Zm9.31-5.85-1.86,4.79h-.09l-2-4.79H104l2.93,6.74-1.68,3.72H107l4.52-10.46ZM94.76,28.86h1.68V17.78H94.76Z"/><path class="cls-4" d="M9.22,8.92a1.78,1.78,0,0,0-.36,1.24V29.84a1.78,1.78,0,0,0,.36,1.24h.09l11-11h0L9.31,8.92Z"/><path class="cls-5" d="M23.93,23.81,20.3,20.09h0l3.63-3.9H24l4.34,2.57c1.25.71,1.25,1.86,0,2.48L24,23.72Z"/><path class="cls-6" d="M24,23.72,20.3,20,9.22,31.08a1.43,1.43,0,0,0,1.86,0L24,23.72"/><path class="cls-7" d="M24,16.28,11.08,8.92a1.59,1.59,0,0,0-1.86,0L20.3,20Z"/><path class="cls-8" d="M23.93,23.63,11.08,31a1.59,1.59,0,0,1-1.77,0h0a1.33,1.33,0,0,0,1.77,0L24,23.63Z"/><path class="cls-9" d="M9.22,30.9a1.77,1.77,0,0,1-.36-1.24v.18a1.78,1.78,0,0,0,.36,1.24h0Z"/><path class="cls-9" d="M28.36,21.15l-4.43,2.48H24l4.34-2.39c.63-.35,1-.8,1-1.24h0A2,2,0,0,1,28.36,21.15Z"/><path class="cls-10" d="M11.08,9l17.28,9.84a2,2,0,0,1,1,1.15h0c0-.44-.35-.89-1-1.24L11.08,8.92c-1.24-.71-2.22-.18-2.22,1.24v.18C8.86,8.92,9.84,8.3,11.08,9Z"/><path class="cls-3" d="M66.29,10.23a7.4,7.4,0,0,1,.52,1.23c.19.56.53.65,1.16.65h.09v.82h-.14a1.44,1.44,0,0,1-.92-.28h0a3.35,3.35,0,0,1-.4,1.48,3.09,3.09,0,0,1-2.17,1,1.85,1.85,0,0,1-2-1.94A3.34,3.34,0,0,1,63,11.36l.24.13a3,3,0,0,0-.36,1.2,1.44,1.44,0,0,0,.43,1.12,1.91,1.91,0,0,0,1.21.42,2.83,2.83,0,0,0,1.56-.55c.28-.22.46-.41.46-.66A3.11,3.11,0,0,0,66.31,12a9.52,9.52,0,0,0-.5-1,5.52,5.52,0,0,1,.43-.68Zm-1.52-2a6.94,6.94,0,0,1,.77.69,2.66,2.66,0,0,1-.54.63c-.25-.24-.5-.44-.75-.66C64.42,8.7,64.59,8.47,64.77,8.27Z"/><path class="cls-3" d="M68.2,12.11c.47,0,.84-.32,1.08-1.13a1.92,1.92,0,0,1,.47-.78,1.2,1.2,0,0,1,.81-.37c.78,0,1.24,1.08,1.34,2.2-.13.58-.37.83-.68.83a3.29,3.29,0,0,1-1.9-.76h0a1.06,1.06,0,0,1-1.11.83h-.11a.41.41,0,0,1-.45-.43.4.4,0,0,1,.45-.39Zm2.24-.25a2.11,2.11,0,0,0,.76.18c.1,0,.18,0,.21-.07-.19-1-.61-1.4-1-1.4a.92.92,0,0,0-.86.63A2,2,0,0,0,70.44,11.86Z"/><path class="cls-3" d="M76.69,12.32c-.68,0-1.17-.23-1.17-.75a1.9,1.9,0,0,1,.21-.75,4.65,4.65,0,0,1,2-1.76l0-.48a6.2,6.2,0,0,1,.5-.52h.07c0,1,0,2,0,3,0,.45.05.74.25.91a1.07,1.07,0,0,0,.67.16h.15v.82h-.14A1.18,1.18,0,0,1,78,12,3.09,3.09,0,0,1,76.69,12.32Zm1.13-2.55c-1.14.59-1.74,1.07-1.74,1.41s.39.36.82.36a3.13,3.13,0,0,0,.95-.18Z"/><path class="cls-3" d="M79.57,12.11c.49,0,1-.2,1.1-.56l.18-.69.45-.32,0,0a4.2,4.2,0,0,0-.14.74.64.64,0,0,0,.22.54,1.2,1.2,0,0,0,.79.25h.12v.82h-.15a1.29,1.29,0,0,1-1.32-.65h0a1.37,1.37,0,0,1-1.27.65h-.13A.4.4,0,0,1,79,12.5a.4.4,0,0,1,.44-.39Zm.72,3.38c-.26-.25-.49-.45-.75-.67a5.47,5.47,0,0,1,.51-.6,5.72,5.72,0,0,1,.73.68A3.41,3.41,0,0,1,80.29,15.49Zm1.24-.08c-.27-.25-.5-.46-.75-.67a5.45,5.45,0,0,1,.5-.61,5.87,5.87,0,0,1,.73.69A3.81,3.81,0,0,1,81.53,15.41Z"/><path class="cls-3" d="M82.44,12.11a1.64,1.64,0,0,0,.75-.2c.19-.1.31-.31.31-.76,0-1.29-.08-2.45-.17-3.92l0-.32.57-.58,0,0c.12,1.5.13,3.07.13,5,0,.3.21.73.95.73h.08v.82h-.13a1.21,1.21,0,0,1-1.25-.68h0a1.34,1.34,0,0,1-1.23.68h-.11a.41.41,0,0,1-.45-.43.4.4,0,0,1,.45-.39Z"/><path class="cls-3" d="M85.48,12.11a3.73,3.73,0,0,0,1-.13v0a1.48,1.48,0,0,1-.75-1.26A1.66,1.66,0,0,1,86,9.85,1.58,1.58,0,0,1,87.28,9a1.64,1.64,0,0,1,1.42,1l-.12.12a1.64,1.64,0,0,0-1.15-.41c-.68,0-1.17.32-1.17.54a1.21,1.21,0,0,0,.55.91,1.55,1.55,0,0,0,.78.35,6.38,6.38,0,0,0,1.83-.46l0,0-.34.79c-1,.36-1.49.41-2.27.67a5.22,5.22,0,0,1-1.57.34h-.2a.41.41,0,0,1-.45-.43.41.41,0,0,1,.45-.39Z"/><path class="cls-3" d="M97,6.61c0,1.58.09,3,.09,4.5a1.18,1.18,0,0,0,.32.82,1,1,0,0,0,.63.18h.07v.82H98a1.08,1.08,0,0,1-1-.48h0a4.34,4.34,0,0,1-.23,1,2.28,2.28,0,0,1-.73.72,2.46,2.46,0,0,1-1.34.4A1.69,1.69,0,0,1,93.37,14a2.14,2.14,0,0,1-.46-1.45,3.92,3.92,0,0,1,.43-1.62l.23.09a2.87,2.87,0,0,0-.27,1.12,1.57,1.57,0,0,0,.33,1,1.33,1.33,0,0,0,1.11.52,2.21,2.21,0,0,0,1.11-.3,1.7,1.7,0,0,0,.7-.61,1.64,1.64,0,0,0,0-.42c0-1,0-2.66-.19-5.16A4.42,4.42,0,0,1,97,6.58Z"/><path class="cls-3" d="M98.29,12.11c.55,0,1-.18,1.06-.56s.1-.49.17-.73a3.13,3.13,0,0,1,.42-.34l0,0a2.22,2.22,0,0,0-.1.61.73.73,0,0,0,.35.71,7.57,7.57,0,0,1,1.32-1.62A2.2,2.2,0,0,1,103,9.56,1.39,1.39,0,0,1,104.44,11a2.6,2.6,0,0,1-.33,1.13H105v.82h-.16a8.09,8.09,0,0,1-1.92-.22,4.74,4.74,0,0,1-1.49.22,2.16,2.16,0,0,1-1.82-.67h0a1.49,1.49,0,0,1-1.32.67h-.08a.41.41,0,0,1-.45-.43.41.41,0,0,1,.45-.39Zm3.47,0a4.78,4.78,0,0,0,1.67-.29c.31-.12.52-.29.52-.48a1.2,1.2,0,0,0-1.2-.95c-.75,0-1.46.62-2.16,1.59A3.8,3.8,0,0,0,101.76,12.11Z"/><path class="cls-3" d="M105.36,12.11A6.56,6.56,0,0,0,108.78,11v0a6,6,0,0,0-2-.45,1,1,0,0,0-.81.32l.08.32-.2.58h-.06l-.31-.85a1.27,1.27,0,0,1,1.39-1.15,6.2,6.2,0,0,1,2.1.55,3.08,3.08,0,0,0,1.1.21h.51l0,0-.34.67a1.94,1.94,0,0,0-1.1.24l-1.07.69a5,5,0,0,1-2.78.86H105a.41.41,0,0,1-.45-.43.4.4,0,0,1,.45-.39Z"/><path class="cls-3" d="M111.67,13a9,9,0,0,0,.07-1.28v-.63c0-1.17-.13-2.88-.23-4a6.88,6.88,0,0,1,.62-.68l.06,0c.14,1.39.17,3,.17,4.51a8.37,8.37,0,0,1,0,1.06,1.66,1.66,0,0,1-.56,1Z"/></g></g></svg>