<svg width="25" height="27" viewBox="0 0 25 27" fill="none" xmlns="http://www.w3.org/2000/svg">
<g clip-path="url(#clip0_641_9)">
<path d="M14.8781 25.476L19.3647 21.2369L23.8626 17.0098C24.8249 16.1006 24.8195 15.878 23.8876 14.8917L23.8868 14.8908C22.7733 13.7123 21.6598 12.5338 20.5583 11.344C19.7628 10.502 19.3771 10.4793 18.5231 11.2862C18.06 11.7238 17.5962 12.1605 17.1324 12.5973C15.741 13.9077 14.3496 15.2181 12.9774 16.5488C12.5316 16.9927 12.287 16.9507 11.8899 16.5063C10.5782 15.0819 9.24626 13.6767 7.91426 12.2715C7.47026 11.8031 7.02636 11.3347 6.58316 10.8656C5.87846 10.1199 5.52756 10.1099 4.76976 10.8259C3.47136 12.0299 2.18436 13.246 0.920662 14.4627C0.211062 15.1332 0.212461 15.4961 0.894361 16.2178C1.84856 17.2278 2.80266 18.2403 3.75726 19.2533C5.66776 21.2806 7.57986 23.3097 9.49756 25.3234C9.83966 25.6886 10.2508 25.9825 10.707 26.1881C11.1633 26.3936 11.6558 26.5067 12.156 26.5209C12.6563 26.5351 13.1544 26.4501 13.6216 26.2707C14.0888 26.0914 14.5158 25.8213 14.8781 25.476ZM12.9465 0.67033C11.6225 0.63933 10.3393 1.13003 9.37376 2.03643C8.41506 2.94533 7.85666 4.19783 7.82136 5.51843C7.78606 6.83893 8.27686 8.11943 9.18576 9.07823C10.0946 10.0369 11.3471 10.5953 12.6677 10.6306C13.9883 10.6658 15.2688 10.1751 16.2275 9.26623C18.2242 7.37963 18.3164 4.12793 16.4513 2.20213C15.5292 1.25143 14.2704 0.70133 12.9465 0.67033Z" fill="#E1222F"/>
</g>
<defs>
<clipPath id="clip0_641_9">
<rect width="27" height="25" fill="white" transform="matrix(0 -1 -1 0 25 27)"/>
</clipPath>
</defs>
</svg>
