<svg width="30" height="30" viewBox="0 0 30 30" fill="none" xmlns="http://www.w3.org/2000/svg">
<mask id="mask0_812_141" style="mask-type:luminance" maskUnits="userSpaceOnUse" x="0" y="0" width="30" height="30">
<path d="M30 0H0V30H30V0Z" fill="white"/>
</mask>
<g mask="url(#mask0_812_141)">
<path d="M24.684 11.6529H5.31404C4.175 11.6543 3.08301 12.1075 2.27778 12.9131C1.47254 13.7187 1.01984 14.8109 1.01904 15.9499L1.01904 24.3629C1.02037 25.5016 1.4733 26.5933 2.27848 27.3985C3.08366 28.2037 4.17534 28.6566 5.31404 28.6579H24.684C25.8236 28.6579 26.9166 28.2056 27.7228 27.4003C28.5291 26.5949 28.9827 25.5025 28.984 24.3629V15.9439C28.9827 14.8044 28.5291 13.7119 27.7228 12.9066C26.9166 12.1013 25.8236 11.6489 24.684 11.6489V11.6529ZM27.563 24.2779C27.562 25.0607 27.2509 25.8112 26.6979 26.3652C26.1448 26.9192 25.3948 27.2315 24.612 27.2339H5.39904C4.61435 27.2345 3.86155 26.9234 3.30613 26.3691C2.7507 25.8148 2.4381 25.0626 2.43704 24.2779V16.0329C2.43704 15.644 2.51367 15.259 2.66255 14.8997C2.81143 14.5405 3.02964 14.2141 3.30471 13.9392C3.57979 13.6643 3.90633 13.4463 4.26569 13.2977C4.62504 13.149 5.01016 13.0727 5.39904 13.0729H24.612C25.0009 13.0727 25.386 13.149 25.7454 13.2977C26.1048 13.4463 26.4313 13.6643 26.7064 13.9392C26.9814 14.2141 27.1997 14.5405 27.3485 14.8997C27.4974 15.259 27.574 15.644 27.574 16.0329L27.563 24.2779Z" fill="#052A3A"/>
<path d="M15 16.7891C14.3333 16.7877 13.6811 16.9842 13.1261 17.3537C12.5711 17.7231 12.1382 18.249 11.8822 18.8646C11.6262 19.4803 11.5587 20.1581 11.6881 20.8121C11.8176 21.4662 12.1382 22.0671 12.6094 22.5389C13.0805 23.0106 13.6811 23.332 14.335 23.4622C14.9889 23.5924 15.6668 23.5257 16.2827 23.2704C16.8987 23.0152 17.4251 22.5829 17.7952 22.0283C18.1654 21.4738 18.3626 20.8218 18.362 20.1551C18.3612 19.2633 18.0069 18.4082 17.3767 17.7772C16.7465 17.1463 15.8918 16.7909 15 16.7891ZM15 22.1061C14.5487 22.1056 14.1115 21.9487 13.7629 21.6621C13.4142 21.3755 13.1758 20.9769 13.0881 20.5342C13.0004 20.0914 13.0689 19.632 13.2819 19.2341C13.495 18.8363 13.8393 18.5246 14.2564 18.3521C14.6735 18.1797 15.1375 18.1571 15.5693 18.2884C16.0011 18.4196 16.374 18.6965 16.6246 19.0719C16.8752 19.4473 16.9878 19.8979 16.9434 20.3471C16.899 20.7962 16.7003 21.216 16.381 21.5351C16.0146 21.901 15.5179 22.1063 15 22.1061Z" fill="#E4122C"/>
<path d="M24.3731 20.1581C24.3731 20.3693 24.3104 20.5758 24.1931 20.7514C24.0757 20.9271 23.9089 21.064 23.7138 21.1448C23.5186 21.2256 23.3039 21.2468 23.0967 21.2056C22.8895 21.1644 22.6992 21.0626 22.5499 20.9133C22.4005 20.7639 22.2988 20.5736 22.2576 20.3664C22.2164 20.1593 22.2375 19.9445 22.3184 19.7494C22.3992 19.5542 22.5361 19.3874 22.7117 19.2701C22.8873 19.1527 23.0938 19.0901 23.3051 19.0901C23.5883 19.0901 23.86 19.2026 24.0603 19.4029C24.2605 19.6032 24.3731 19.8748 24.3731 20.1581Z" fill="#052A3A"/>
<path d="M7.76005 20.1579C7.75965 20.3688 7.6967 20.5748 7.57914 20.75C7.46159 20.9251 7.29473 21.0614 7.09968 21.1417C6.90462 21.2219 6.69015 21.2425 6.48339 21.2008C6.27663 21.1591 6.08688 21.0571 5.93816 20.9075C5.78943 20.7579 5.68842 20.5676 5.64791 20.3606C5.60739 20.1536 5.62919 19.9393 5.71054 19.7447C5.7919 19.5501 5.92915 19.384 6.10494 19.2674C6.28072 19.1509 6.48713 19.0891 6.69805 19.0899C6.98042 19.0909 7.25084 19.204 7.44995 19.4042C7.64906 19.6044 7.76058 19.8755 7.76005 20.1579Z" fill="#052A3A"/>
<path d="M15 10.248C14.9017 10.2474 14.8044 10.2276 14.7137 10.1894C14.623 10.1513 14.5407 10.0957 14.4716 10.0258C14.4024 9.95585 14.3477 9.87298 14.3105 9.78191C14.2733 9.69083 14.2545 9.59333 14.255 9.49497V2.09497C14.255 1.89606 14.334 1.70529 14.4747 1.56464C14.6153 1.42399 14.8061 1.34497 15.005 1.34497C15.2039 1.34497 15.3947 1.42399 15.5353 1.56464C15.676 1.70529 15.755 1.89606 15.755 2.09497V9.49497C15.755 9.6938 15.6762 9.88452 15.5358 10.0253C15.3954 10.1661 15.2048 10.2454 15.006 10.246L15 10.248Z" fill="#E4122C"/>
<path d="M18.9951 10.2481C18.7966 10.2475 18.6064 10.1684 18.4661 10.0281C18.3257 9.88774 18.2466 9.69754 18.2461 9.49905V4.33105C18.2461 4.13214 18.3251 3.94138 18.4658 3.80072C18.6064 3.66007 18.7972 3.58105 18.9961 3.58105C19.195 3.58105 19.3858 3.66007 19.5264 3.80072C19.6671 3.94138 19.7461 4.13214 19.7461 4.33105V9.49805C19.7448 9.6963 19.6655 9.88605 19.5253 10.0262C19.3851 10.1664 19.1953 10.2457 18.9971 10.2471L18.9951 10.2481Z" fill="#E4122C"/>
<path d="M11.002 10.248C10.8037 10.2474 10.6137 10.1683 10.4737 10.0279C10.3336 9.88747 10.255 9.69726 10.255 9.49896V5.33496C10.255 5.13605 10.334 4.94528 10.4747 4.80463C10.6153 4.66398 10.8061 4.58496 11.005 4.58496C11.2039 4.58496 11.3947 4.66398 11.5353 4.80463C11.676 4.94528 11.755 5.13605 11.755 5.33496V9.49796C11.7549 9.59667 11.7353 9.69438 11.6974 9.78551C11.6594 9.87664 11.6039 9.9594 11.534 10.0291C11.464 10.0987 11.3811 10.1539 11.2898 10.1915C11.1985 10.229 11.1007 10.2482 11.002 10.248Z" fill="#E4122C"/>
</g>
</svg>
