<svg width="29" height="16" viewBox="0 0 29 16" fill="none" xmlns="http://www.w3.org/2000/svg">
<path d="M21.0326 15.654C19.5942 15.6465 18.1853 15.2464 16.9576 14.497C16.2018 14.0223 15.331 13.7623 14.4386 13.745C13.5438 13.7615 12.6708 14.0234 11.9146 14.502C10.6745 15.2493 9.25541 15.6473 7.80758 15.654C5.99147 15.6531 4.23245 15.0192 2.83314 13.8616C1.43383 12.7039 0.481713 11.0948 0.140582 9.31099C0.103582 9.13199 0.073582 8.94999 0.040582 8.76899C0.025582 8.68399 -0.00341797 8.49799 -0.00341797 8.49799V7.18099L0.042582 6.88699C0.070582 6.71999 0.099582 6.55399 0.131582 6.38699C0.490298 4.80947 1.30383 3.3718 2.47144 2.25201C3.63904 1.13221 5.10945 0.37947 6.70058 0.0869884C7.11624 0.0279735 7.53578 0.000562772 7.95558 0.00498962C8.68092 0.00498962 9.40792 0.00498962 10.1366 0.00498962H12.8196H16.1836C16.6476 0.00498962 17.1126 0.00498962 17.5746 0.00498962H17.6826C18.1896 0.00498962 18.6826 0.00498962 19.1826 0.00498962C19.8596 0.00498962 20.4286 0.00499023 20.9706 -0.0100098C21.0136 -0.0100098 21.0606 -0.0100098 21.1086 -0.0100098C22.9681 0.0764198 24.7431 0.791737 26.1429 2.01878C27.5427 3.24582 28.4843 4.91185 28.8136 6.74399C29.082 8.70568 28.5983 10.6963 27.4596 12.3161C26.3208 13.9358 24.6114 15.0647 22.6746 15.476C22.1344 15.5892 21.5844 15.6489 21.0326 15.654ZM7.91058 1.47299C6.68949 1.45145 5.49377 1.82269 4.49958 2.53199C2.11558 4.25699 1.15658 6.34799 1.56858 8.93199C1.82445 10.4047 2.59162 11.7399 3.73505 12.7026C4.87847 13.6653 6.32485 14.1937 7.81958 14.195C8.24411 14.1956 8.6675 14.151 9.08258 14.062C9.85638 13.8842 10.5972 13.5852 11.2776 13.176C12.2385 12.599 13.3348 12.2861 14.4556 12.269C15.5608 12.2828 16.6419 12.5936 17.5856 13.169C18.6343 13.816 19.8394 14.1655 21.0716 14.18C21.5322 14.1795 21.9914 14.1302 22.4416 14.033C24 13.6814 25.3696 12.7574 26.2791 11.444C27.1886 10.1306 27.5717 8.52348 27.3526 6.94099C27.0683 5.46283 26.2988 4.12181 25.1662 3.13043C24.0335 2.13905 22.6024 1.554 21.0996 1.46799H20.9996C20.2396 1.48299 19.4406 1.48999 18.4876 1.48999C17.8109 1.48999 17.1346 1.48766 16.4586 1.48299C15.7826 1.47832 15.1072 1.47832 14.4326 1.48299H10.5876C9.70825 1.48299 8.82925 1.48066 7.95058 1.47599L7.91058 1.47299Z" fill="#052A3A"/>
<path d="M11.6065 6.92499C11.6118 6.85527 11.6017 6.78525 11.5768 6.71991C11.5519 6.65457 11.5129 6.59553 11.4625 6.547C11.4122 6.49848 11.3518 6.46166 11.2856 6.43919C11.2194 6.41672 11.149 6.40914 11.0795 6.41699C10.9695 6.41699 10.8575 6.41699 10.7475 6.41699H9.23852C9.23852 5.80199 9.23852 5.21699 9.23852 4.64199C9.23852 4.21699 9.07452 4.04899 8.65752 4.04199C8.10352 4.04199 7.54952 4.04199 6.99752 4.04199C6.57552 4.04199 6.40952 4.21099 6.40952 4.63299C6.40952 5.21199 6.40952 5.79199 6.40952 6.41299C5.77252 6.41299 5.17452 6.41299 4.57652 6.41299C4.24652 6.41299 4.05452 6.57399 4.04652 6.88599C4.03186 7.51332 4.03186 8.14066 4.04652 8.76799C4.04459 8.83358 4.05671 8.89882 4.08208 8.95933C4.10744 9.01985 4.14546 9.07424 4.19357 9.11885C4.24169 9.16346 4.29879 9.19726 4.36104 9.21798C4.4233 9.2387 4.48927 9.24587 4.55452 9.23899C5.02352 9.24599 5.49452 9.23899 5.96552 9.23899H6.40952C6.40952 9.83899 6.40952 10.389 6.40952 10.939C6.40952 11.464 6.55352 11.605 7.08852 11.608H8.58252C9.09552 11.608 9.23952 11.459 9.23952 10.944V9.24899C9.86952 9.24899 10.4675 9.24899 11.0635 9.24899C11.1353 9.25935 11.2085 9.25325 11.2775 9.23115C11.3466 9.20905 11.4097 9.17153 11.4621 9.12143C11.5145 9.07133 11.5549 9.00996 11.5801 8.94197C11.6052 8.87398 11.6146 8.80115 11.6075 8.72899C11.6135 8.12599 11.6165 7.52499 11.6065 6.92499ZM10.6465 8.30399H8.92352C8.44952 8.30399 8.29652 8.45799 8.29652 8.93599C8.29652 9.50499 8.29652 10.073 8.29652 10.657H7.35152V9.22499C7.35152 8.34799 7.30952 8.30499 6.43152 8.30499H5.00252V7.36299H6.69652C7.20452 7.36299 7.35052 7.21399 7.35052 6.69899V5.00599H8.29552V6.49799C8.29552 7.29099 8.36652 7.36199 9.16452 7.36199H10.6465V8.30399Z" fill="#E4122C"/>
<path d="M21.0445 8.78004C20.6702 8.78205 20.305 8.89515 19.995 9.10501C19.6851 9.31488 19.4444 9.61206 19.3036 9.95886C19.1627 10.3057 19.128 10.6865 19.2039 11.053C19.2797 11.4196 19.4627 11.7553 19.7296 12.0177C19.9966 12.2802 20.3354 12.4574 20.7032 12.527C21.0709 12.5967 21.4511 12.5555 21.7955 12.4088C22.1398 12.2621 22.4329 12.0164 22.6374 11.7029C22.842 11.3895 22.9489 11.0223 22.9445 10.648C22.9377 10.1492 22.7343 9.67321 22.3786 9.32345C22.0228 8.97369 21.5434 8.77841 21.0445 8.78004ZM21.0445 11.614C20.7933 11.609 20.5541 11.5053 20.3787 11.3253C20.2033 11.1452 20.1059 10.9034 20.1075 10.652C20.1174 10.407 20.2223 10.1754 20.3999 10.0063C20.5776 9.83721 20.814 9.74389 21.0593 9.7461C21.3045 9.74831 21.5393 9.84588 21.7138 10.0181C21.8884 10.1904 21.9891 10.4238 21.9945 10.669C21.9932 10.9193 21.8932 11.1589 21.7163 11.3358C21.5394 11.5127 21.2998 11.6127 21.0495 11.614H21.0445Z" fill="#052A3A"/>
<path d="M17.7496 5.9419C17.3765 5.94211 17.0118 6.0527 16.7014 6.25974C16.391 6.46677 16.1488 6.761 16.0053 7.10539C15.8617 7.44978 15.8233 7.82893 15.8948 8.19513C15.9662 8.56133 16.1444 8.8982 16.4069 9.16334C16.6694 9.42848 17.0045 9.61004 17.37 9.68517C17.7354 9.76029 18.115 9.72563 18.4608 9.58553C18.8066 9.44544 19.1032 9.20618 19.3133 8.89787C19.5235 8.58956 19.6377 8.22598 19.6416 7.8529C19.6444 7.60277 19.5975 7.35458 19.5037 7.12271C19.4098 6.89085 19.2708 6.67992 19.0948 6.50216C18.9189 6.3244 18.7093 6.18334 18.4784 6.08717C18.2475 5.99099 17.9998 5.94162 17.7496 5.9419ZM17.7616 8.7759C17.6352 8.78063 17.5091 8.7599 17.3909 8.71494C17.2726 8.66997 17.1646 8.6017 17.0732 8.51417C16.9819 8.42664 16.909 8.32164 16.8591 8.2054C16.8091 8.08917 16.783 7.96408 16.7823 7.83756C16.7817 7.71104 16.8064 7.58568 16.8552 7.46893C16.9039 7.35217 16.9756 7.2464 17.066 7.15791C17.1565 7.06941 17.2637 6.99999 17.3815 6.95378C17.4993 6.90757 17.6252 6.88551 17.7516 6.8889C17.9967 6.89547 18.2295 6.99709 18.401 7.17227C18.5724 7.34745 18.669 7.58244 18.6703 7.82755C18.6716 8.07267 18.5775 8.30867 18.4079 8.48566C18.2384 8.66264 18.0066 8.76673 17.7616 8.7759Z" fill="#052A3A"/>
<path d="M21.0806 3.10187C20.8326 3.09977 20.5866 3.14654 20.3567 3.2395C20.1267 3.33247 19.9174 3.46981 19.7405 3.64369C19.5637 3.81757 19.4228 4.02458 19.326 4.25289C19.2291 4.48121 19.1782 4.72637 19.1761 4.97438C19.174 5.22238 19.2208 5.46836 19.3137 5.69829C19.4067 5.92822 19.544 6.13758 19.7179 6.31443C19.8918 6.49128 20.0988 6.63215 20.3271 6.729C20.5554 6.82585 20.8006 6.87677 21.0486 6.87887C21.296 6.88098 21.5414 6.83434 21.7708 6.7416C22.0002 6.64887 22.209 6.51186 22.3855 6.3384C22.5619 6.16494 22.7025 5.95842 22.7991 5.73064C22.8957 5.50287 22.9465 5.25829 22.9486 5.01087C22.951 4.5109 22.7563 4.03012 22.4066 3.67276C22.0569 3.31541 21.5805 3.11029 21.0806 3.10187ZM21.0666 5.92987C20.9422 5.93173 20.8186 5.90889 20.7031 5.86268C20.5876 5.81647 20.4824 5.74781 20.3936 5.66067C20.3047 5.57353 20.2341 5.46964 20.1857 5.35501C20.1373 5.24038 20.1121 5.1173 20.1116 4.99287C20.117 4.74768 20.2177 4.51424 20.3923 4.34198C20.5669 4.16971 20.8016 4.07214 21.0469 4.06993C21.2921 4.06772 21.5286 4.16105 21.7062 4.33014C21.8839 4.49923 21.9887 4.73082 21.9986 4.97588C22.0017 5.10014 21.9798 5.22377 21.9343 5.33945C21.8889 5.45514 21.8207 5.56055 21.7338 5.64947C21.647 5.73838 21.5432 5.809 21.4286 5.85716C21.314 5.90532 21.1909 5.93004 21.0666 5.92987Z" fill="#052A3A"/>
<path d="M24.3796 5.94201C24.0051 5.93786 23.6379 6.04499 23.3243 6.24984C23.0108 6.45468 22.7652 6.74801 22.6186 7.09263C22.472 7.43726 22.431 7.81765 22.5008 8.18559C22.5707 8.55352 22.7482 8.89244 23.0109 9.15935C23.2736 9.42627 23.6097 9.60917 23.9764 9.68487C24.3432 9.76056 24.7242 9.72564 25.0711 9.58454C25.418 9.44343 25.7152 9.2025 25.9251 8.89227C26.1349 8.58205 26.2478 8.21652 26.2496 7.84201C26.2497 7.34326 26.0536 6.86447 25.7038 6.509C25.3539 6.15354 24.8783 5.94989 24.3796 5.94201ZM24.3476 8.77601C24.1609 8.77342 23.9792 8.71551 23.8253 8.6096C23.6715 8.50369 23.5526 8.35454 23.4836 8.18103C23.4146 8.00751 23.3986 7.81743 23.4376 7.63481C23.4766 7.45219 23.5689 7.28525 23.7028 7.15511C23.8368 7.02497 24.0063 6.93747 24.1899 6.90368C24.3736 6.8699 24.5631 6.89134 24.7346 6.9653C24.9061 7.03926 25.0518 7.16241 25.1532 7.31918C25.2547 7.47595 25.3074 7.65929 25.3046 7.84601C25.3039 7.97008 25.2784 8.09274 25.2296 8.20683C25.1809 8.32093 25.1099 8.42415 25.0208 8.51047C24.9317 8.59679 24.8262 8.66447 24.7107 8.70955C24.5951 8.75463 24.4717 8.77621 24.3476 8.77301V8.77601Z" fill="#052A3A"/>
</svg>
