<svg width="31" height="19" viewBox="0 0 31 19" fill="none" xmlns="http://www.w3.org/2000/svg">
<path d="M30.9969 0H5.55946L0 9.5L5.55946 19H30.9969L27.6724 9.5L30.9969 0Z" fill="#E91B2C"/>
<path d="M29.3613 0H7.19832L1.63574 9.5L7.1952 19H29.3581L26.0399 9.5L29.3613 0Z" fill="#132735"/>
<path d="M22.4938 4.89301H22.2816V2.97578C22.2816 2.69012 22.1665 2.41615 21.9616 2.21416C21.7567 2.01216 21.4788 1.89868 21.189 1.89868C20.8993 1.89868 20.6214 2.01216 20.4165 2.21416C20.2116 2.41615 20.0965 2.69012 20.0965 2.97578V3.78206C20.0965 3.87429 20.1336 3.96274 20.1998 4.02796C20.266 4.09317 20.3557 4.12981 20.4492 4.12981C20.5428 4.12981 20.6325 4.09317 20.6986 4.02796C20.7648 3.96274 20.802 3.87429 20.802 3.78206V2.97578C20.802 2.8762 20.8421 2.78071 20.9135 2.7103C20.9849 2.63989 21.0818 2.60033 21.1828 2.60033C21.2838 2.60033 21.3806 2.63989 21.4521 2.7103C21.5235 2.78071 21.5636 2.8762 21.5636 2.97578V4.89301H19.9092C19.8547 4.89223 19.8009 4.88071 19.751 4.85913C19.701 4.83755 19.656 4.80635 19.6185 4.76735C19.5809 4.72836 19.5517 4.68236 19.5325 4.63206C19.5133 4.58177 19.5044 4.52819 19.5065 4.47448V3.02502C19.5065 2.93279 19.4694 2.84434 19.4032 2.77912C19.3371 2.71391 19.2473 2.67727 19.1538 2.67727C19.0602 2.67727 18.9705 2.71391 18.9044 2.77912C18.8382 2.84434 18.801 2.93279 18.801 3.02502V5.66545C18.8002 5.78273 18.7526 5.89498 18.6685 5.97791C18.5844 6.06084 18.4705 6.10779 18.3515 6.10859H18.0706C17.9824 6.11677 17.9004 6.1571 17.8408 6.2217C17.7811 6.2863 17.748 6.37052 17.748 6.45788C17.748 6.54524 17.7811 6.62946 17.8408 6.69406C17.9004 6.75866 17.9824 6.799 18.0706 6.80717H18.3515C18.6582 6.80635 18.9519 6.68571 19.1684 6.47168C19.3849 6.25765 19.5065 5.96772 19.5065 5.66545V5.51465C19.6348 5.56422 19.7714 5.58929 19.9092 5.58851H22.4938C22.5874 5.58851 22.6771 5.55187 22.7432 5.48666C22.8094 5.42144 22.8466 5.33299 22.8466 5.24076C22.8466 5.14853 22.8094 5.06008 22.7432 4.99487C22.6771 4.92965 22.5874 4.89301 22.4938 4.89301Z" fill="#BABDBF"/>
<path d="M18.9042 2.20344H19.4036C19.4505 2.20329 19.4962 2.18948 19.5351 2.16374C19.574 2.138 19.6042 2.10149 19.6221 2.0588C19.6401 2.0166 19.645 1.97007 19.6361 1.92514C19.6272 1.8802 19.605 1.83889 19.5722 1.80646L19.3225 1.56026C19.3007 1.5384 19.2747 1.52103 19.246 1.50917C19.2173 1.49732 19.1865 1.49121 19.1554 1.49121C19.1244 1.49121 19.0936 1.49732 19.0649 1.50917C19.0362 1.52103 19.0102 1.5384 18.9884 1.56026L18.7387 1.80646C18.7056 1.83866 18.6831 1.87999 18.6742 1.92502C18.6653 1.97005 18.6704 2.01668 18.6888 2.0588C18.7061 2.10124 18.7358 2.13765 18.7742 2.1634C18.8125 2.18915 18.8578 2.20309 18.9042 2.20344Z" fill="#BABDBF"/>
<path d="M11.6996 5.54544C11.6541 5.50413 11.5945 5.4812 11.5326 5.4812C11.4707 5.4812 11.4111 5.50413 11.3656 5.54544L11.119 5.79163C11.0852 5.82373 11.062 5.86511 11.0523 5.91038C11.0427 5.95566 11.0471 6.00275 11.0649 6.04554C11.0827 6.08834 11.1132 6.12486 11.1524 6.15037C11.1915 6.17588 11.2375 6.18921 11.2844 6.18862H11.7839C11.8303 6.18826 11.8755 6.17433 11.9139 6.14857C11.9522 6.12282 11.982 6.08642 11.9993 6.04398C12.0177 6.00185 12.0228 5.95522 12.0139 5.91019C12.005 5.86516 11.9825 5.82384 11.9493 5.79163L11.6996 5.54544Z" fill="#BABDBF"/>
<path d="M11.6996 4.70843C11.6544 4.66645 11.5947 4.64307 11.5326 4.64307C11.4705 4.64307 11.4108 4.66645 11.3656 4.70843L11.119 4.95462C11.0852 4.98673 11.062 5.0281 11.0523 5.07338C11.0427 5.11865 11.0471 5.16574 11.0649 5.20854C11.0827 5.25133 11.1132 5.28785 11.1524 5.31336C11.1915 5.33888 11.2375 5.3522 11.2844 5.35161H11.7839C11.8303 5.35126 11.8755 5.33732 11.9139 5.31157C11.9522 5.28582 11.982 5.24941 11.9993 5.20697C12.0177 5.16484 12.0228 5.11821 12.0139 5.07318C12.005 5.02816 11.9825 4.98683 11.9493 4.95462L11.6996 4.70843Z" fill="#BABDBF"/>
<path d="M18.0427 4.74845V3.0251C18.0427 2.73943 17.9276 2.46547 17.7227 2.26347C17.5178 2.06148 17.2399 1.948 16.9502 1.948C16.6604 1.948 16.3825 2.06148 16.1776 2.26347C15.9727 2.46547 15.8576 2.73943 15.8576 3.0251V4.74845C15.8576 4.78628 15.8426 4.82262 15.8158 4.84965C15.7889 4.87669 15.7524 4.89229 15.714 4.89309H14.3905C14.2969 4.89309 14.2072 4.92973 14.1411 4.99494C14.0749 5.06016 14.0378 5.14861 14.0378 5.24084C14.0378 5.33307 14.0749 5.42152 14.1411 5.48673C14.2072 5.55195 14.2969 5.58859 14.3905 5.58859H14.7026V5.764C14.6897 5.97043 14.5975 6.16424 14.4446 6.30591C14.2918 6.44758 14.0899 6.52646 13.8801 6.52646C13.6703 6.52646 13.4684 6.44758 13.3156 6.30591C13.1628 6.16424 13.0705 5.97043 13.0576 5.764V4.6869C13.0576 4.59467 13.0204 4.50622 12.9543 4.44101C12.8881 4.37579 12.7984 4.33915 12.7049 4.33915C12.6113 4.33915 12.5216 4.37579 12.4554 4.44101C12.3893 4.50622 12.3521 4.59467 12.3521 4.6869V5.764C12.3521 6.16393 12.5133 6.54748 12.8001 6.83027C13.087 7.11307 13.476 7.27194 13.8817 7.27194C14.2873 7.27194 14.6764 7.11307 14.9632 6.83027C15.2501 6.54748 15.4112 6.16393 15.4112 5.764V5.58859H15.7078C15.8594 5.58822 16.008 5.54784 16.1385 5.47165C16.2862 5.6312 16.4796 5.74297 16.6929 5.79226C16.9063 5.84156 17.1298 5.82607 17.3341 5.74784C17.5384 5.66962 17.7139 5.5323 17.8376 5.35394C17.9613 5.17558 18.0273 4.96451 18.0271 4.74845M17.3216 4.74845C17.3216 4.84803 17.2815 4.94352 17.2101 5.01393C17.1387 5.08434 17.0418 5.1239 16.9408 5.1239C16.8398 5.1239 16.7429 5.08434 16.6715 5.01393C16.6001 4.94352 16.5599 4.84803 16.5599 4.74845V3.0251C16.5599 2.92552 16.6001 2.83003 16.6715 2.75962C16.7429 2.68921 16.8398 2.64965 16.9408 2.64965C17.0418 2.64965 17.1387 2.68921 17.2101 2.75962C17.2815 2.83003 17.3216 2.92552 17.3216 3.0251V4.74845Z" fill="#BABDBF"/>
<path d="M12.1835 7.90592C12.1059 7.90589 12.0291 7.92119 11.9577 7.95092C11.8862 7.98064 11.8215 8.02418 11.7673 8.07898C11.7132 8.13377 11.6708 8.1987 11.6425 8.26993C11.6143 8.34116 11.6008 8.41725 11.6029 8.49371V13.0298H10.192V6.76727C10.1812 6.62311 10.1156 6.4883 10.0082 6.3899C9.90077 6.29151 9.75957 6.23682 9.61295 6.23682C9.46633 6.23682 9.32514 6.29151 9.21773 6.3899C9.11032 6.4883 9.04465 6.62311 9.03391 6.76727V14.8609C9.03391 15.0445 8.95991 15.2207 8.82819 15.3505C8.69648 15.4804 8.51783 15.5533 8.33156 15.5533H8.00692C7.82065 15.5533 7.642 15.4804 7.51028 15.3505C7.37857 15.2207 7.30457 15.0445 7.30457 14.8609V13.1929C7.29383 13.0488 7.22816 12.914 7.12075 12.8156C7.01334 12.7172 6.87215 12.6625 6.72553 12.6625C6.57891 12.6625 6.43771 12.7172 6.3303 12.8156C6.2229 12.914 6.15723 13.0488 6.14648 13.1929V14.8609C6.14648 15.3506 6.34381 15.8203 6.69505 16.1665C7.04629 16.5128 7.52268 16.7073 8.01941 16.7073H8.33156C8.82829 16.7073 9.30468 16.5128 9.65592 16.1665C10.0071 15.8203 10.2045 15.3506 10.2045 14.8609V14.1685H12.1866C12.2625 14.1685 12.3376 14.1537 12.4076 14.1251C12.4777 14.0965 12.5414 14.0546 12.595 14.0017C12.6486 13.9489 12.6911 13.8861 12.7202 13.817C12.7492 13.7479 12.7641 13.6739 12.7641 13.5991V8.49371C12.7645 8.41868 12.7499 8.34432 12.7211 8.27489C12.6922 8.20546 12.6498 8.14234 12.5961 8.08914C12.5424 8.03595 12.4786 7.99374 12.4084 7.96494C12.3381 7.93613 12.2627 7.92131 12.1866 7.92131" fill="#E91B2C"/>
<path d="M23.6143 10.4263C23.4612 10.4263 23.3143 10.4863 23.206 10.5931C23.0977 10.6999 23.0368 10.8447 23.0368 10.9957V13.0298H21.6977V9.64468C21.7301 9.38511 21.7063 9.12171 21.6277 8.87191C21.5491 8.62212 21.4175 8.39164 21.2418 8.19573C21.066 7.99982 20.8501 7.84295 20.6082 7.73551C20.3664 7.62807 20.1041 7.57251 19.8388 7.57251C19.5735 7.57251 19.3113 7.62807 19.0694 7.73551C18.8276 7.84295 18.6116 7.99982 18.4359 8.19573C18.2601 8.39164 18.1286 8.62212 18.05 8.87191C17.9714 9.12171 17.9475 9.38511 17.9799 9.64468V11.048C17.9741 11.1265 17.9847 11.2053 18.0112 11.2796C18.0376 11.3538 18.0793 11.4219 18.1337 11.4796C18.188 11.5372 18.2538 11.5832 18.327 11.6147C18.4002 11.6461 18.4792 11.6623 18.559 11.6623C18.6388 11.6623 18.7178 11.6461 18.791 11.6147C18.8642 11.5832 18.93 11.5372 18.9843 11.4796C19.0387 11.4219 19.0804 11.3538 19.1068 11.2796C19.1333 11.2053 19.1439 11.1265 19.138 11.048V9.65391C19.1316 9.55931 19.145 9.46441 19.1773 9.37511C19.2096 9.28581 19.2602 9.204 19.3259 9.13476C19.3916 9.06551 19.471 9.01031 19.5593 8.97257C19.6475 8.93483 19.7426 8.91536 19.8388 8.91536C19.935 8.91536 20.0301 8.93483 20.1184 8.97257C20.2066 9.01031 20.286 9.06551 20.3517 9.13476C20.4174 9.204 20.468 9.28581 20.5003 9.37511C20.5326 9.46441 20.546 9.55931 20.5396 9.65391V13.0391H17.2776V9.74008C17.2246 9.29025 17.0059 8.87529 16.6628 8.57409C16.3198 8.2729 15.8765 8.10648 15.4172 8.10648C14.9578 8.10648 14.5145 8.2729 14.1715 8.57409C13.8285 8.87529 13.6097 9.29025 13.5567 9.74008V13.5992C13.5567 13.6742 13.5718 13.7485 13.601 13.8178C13.6302 13.887 13.673 13.9499 13.727 14.0028C13.7809 14.0557 13.845 14.0976 13.9154 14.126C13.9858 14.1545 14.0612 14.1689 14.1373 14.1685H16.1226V14.3408C16.1218 14.556 16.0347 14.7622 15.8804 14.9144C15.726 15.0666 15.5169 15.1525 15.2985 15.1533H14.1373C14.0577 15.1475 13.9777 15.158 13.9024 15.1841C13.8271 15.2101 13.758 15.2512 13.6996 15.3048C13.6411 15.3584 13.5944 15.4233 13.5625 15.4954C13.5306 15.5676 13.5142 15.6454 13.5142 15.7241C13.5142 15.8028 13.5306 15.8807 13.5625 15.9528C13.5944 16.025 13.6411 16.0899 13.6996 16.1434C13.758 16.197 13.8271 16.2381 13.9024 16.2642C13.9777 16.2903 14.0577 16.3008 14.1373 16.295H15.2954C15.8209 16.2942 16.3246 16.088 16.6961 15.7217C17.0677 15.3554 17.2768 14.8589 17.2776 14.3408V14.1716H23.6143C23.6904 14.172 23.7659 14.1575 23.8363 14.1291C23.9067 14.1007 23.9707 14.0588 24.0247 14.0059C24.0786 13.953 24.1215 13.8901 24.1507 13.8208C24.1799 13.7516 24.1949 13.6773 24.1949 13.6022V10.9957C24.1949 10.9206 24.1799 10.8464 24.1507 10.7771C24.1215 10.7078 24.0786 10.6449 24.0247 10.592C23.9707 10.5391 23.9067 10.4972 23.8363 10.4688C23.7659 10.4404 23.6904 10.4259 23.6143 10.4263ZM16.1226 13.0298H14.7179V9.74008C14.7115 9.64548 14.7249 9.55058 14.7572 9.46128C14.7895 9.37198 14.8401 9.29017 14.9058 9.22092C14.9715 9.15168 15.0509 9.09648 15.1392 9.05874C15.2274 9.021 15.3225 9.00153 15.4187 9.00153C15.5149 9.00153 15.6101 9.021 15.6983 9.05874C15.7865 9.09648 15.8659 9.15168 15.9316 9.22092C15.9973 9.29017 16.0479 9.37198 16.0802 9.46128C16.1125 9.55058 16.1259 9.64548 16.1195 9.74008L16.1226 13.0298Z" fill="#E91B2C"/>
<path d="M23.1681 7.92125H24.039C24.1375 7.92133 24.2337 7.89257 24.3155 7.83862C24.3973 7.78467 24.461 7.70796 24.4984 7.61824C24.5359 7.52852 24.5455 7.42985 24.5259 7.33476C24.5064 7.23966 24.4586 7.15244 24.3887 7.08419L23.9548 6.64719C23.9087 6.60169 23.8539 6.56559 23.7937 6.54097C23.7334 6.51634 23.6688 6.50366 23.6036 6.50366C23.5384 6.50366 23.4738 6.51634 23.4135 6.54097C23.3533 6.56559 23.2985 6.60169 23.2524 6.64719L22.8185 7.07495C22.7486 7.14321 22.7008 7.23043 22.6813 7.32552C22.6617 7.42061 22.6713 7.51929 22.7087 7.60901C22.7462 7.69873 22.8099 7.77544 22.8917 7.82939C22.9735 7.88334 23.0697 7.9121 23.1681 7.91201" fill="#E91B2C"/>
<path d="M23.9547 8.27519C23.9088 8.22932 23.8541 8.1929 23.7938 8.16803C23.7335 8.14317 23.6688 8.13037 23.6035 8.13037C23.5382 8.13037 23.4735 8.14317 23.4132 8.16803C23.3529 8.1929 23.2982 8.22932 23.2523 8.27519L22.8184 8.70295C22.748 8.77079 22.6998 8.85785 22.68 8.95292C22.6602 9.048 22.6697 9.14674 22.7073 9.23644C22.7449 9.32615 22.8089 9.4027 22.891 9.45625C22.9731 9.5098 23.0696 9.5379 23.168 9.53694H24.039C24.1374 9.5379 24.2339 9.5098 24.316 9.45625C24.3981 9.4027 24.4621 9.32615 24.4997 9.23644C24.5373 9.14674 24.5468 9.048 24.527 8.95292C24.5072 8.85785 24.459 8.77079 24.3886 8.70295L23.9547 8.27519Z" fill="#E91B2C"/>
<path d="M15.1833 13.6458H14.3124C14.2144 13.6466 14.1188 13.6757 14.0375 13.7297C13.9561 13.7837 13.8927 13.86 13.8551 13.9493C13.8175 14.0385 13.8074 14.1367 13.826 14.2316C13.8446 14.3265 13.8911 14.4139 13.9597 14.4829L14.3967 14.9106C14.4426 14.9559 14.4971 14.9917 14.5571 15.016C14.6171 15.0403 14.6814 15.0526 14.7463 15.0522C14.8117 15.0526 14.8765 15.0404 14.937 15.0161C14.9975 14.9918 15.0526 14.956 15.099 14.9106L15.5329 14.4829C15.6022 14.4139 15.6492 14.3262 15.6681 14.2309C15.687 14.1357 15.6769 14.037 15.6391 13.9474C15.6029 13.8571 15.5402 13.7796 15.459 13.7247C15.3778 13.6699 15.2818 13.6402 15.1833 13.6396" fill="#E91B2C"/>
<path d="M12.1835 15.03H11.3126C11.2138 15.0308 11.1175 15.0605 11.0358 15.1153C10.9541 15.1701 10.8908 15.2475 10.8537 15.3378C10.8141 15.4281 10.803 15.5281 10.822 15.6247C10.8409 15.7214 10.889 15.8101 10.9598 15.8794L11.3969 16.3102C11.4427 16.3555 11.4973 16.3913 11.5573 16.4156C11.6173 16.4399 11.6816 16.4522 11.7465 16.4518C11.8118 16.4523 11.8766 16.44 11.9372 16.4157C11.9977 16.3914 12.0528 16.3556 12.0992 16.3102L12.5331 15.8794C12.602 15.811 12.6488 15.724 12.6677 15.6295C12.6867 15.5349 12.6769 15.4369 12.6395 15.3478C12.6022 15.2587 12.539 15.1825 12.4578 15.1287C12.3767 15.0749 12.2813 15.0459 12.1835 15.0454" fill="#E91B2C"/>
</svg>
