<svg width="35" height="28" viewBox="0 0 27 28" fill="none" xmlns="http://www.w3.org/2000/svg">
<path d="M30.9969 0H5.55946L0 9.5L5.55946 19H30.9969L27.6724 9.5L30.9969 0Z" fill="#E91B2C"/>
<path d="M29.3613 0H7.19832L1.63574 9.5L7.1952 19H29.3581L26.0399 9.5L29.3613 0Z" fill="#132735"/>
<path d="M22.4938 4.89301H22.2816V2.97578C22.2816 2.69012 22.1665 2.41615 21.9616 2.21416C21.7567 2.01216 21.4788 1.89868 21.189 1.89868C20.8993 1.89868 20.6214 2.01216 20.4165 2.21416C20.2116 2.41615 20.0965 2.69012 20.0965 2.97578V3.78206C20.0965 3.87429 20.1336 3.96274 20.1998 4.02796C20.266 4.09317 20.3557 4.12981 20.4492 4.12981C20.5428 4.12981 20.6325 4.09317 20.6986 4.02796C20.7648 3.96274 20.802 3.87429 20.802 3.78206V2.97578C20.802 2.8762 20.8421 2.78071 20.9135 2.7103C20.9849 2.63989 21.0818 2.60033 21.1828 2.60033C21.2838 2.60033 21.3806 2.63989 21.4521 2.7103C21.5235 2.78071 21.5636 2.8762 21.5636 2.97578V4.89301H19.9092C19.8547 4.89223 19.8009 4.88071 19.751 4.85913C19.701 4.83755 19.656 4.80635 19.6185 4.76735C19.5809 4.72836 19.5517 4.68236 19.5325 4.63206C19.5133 4.58177 19.5044 4.52819 19.5065 4.47448V3.02502C19.5065 2.93279 19.4694 2.84434 19.4032 2.77912C19.3371 2.71391 19.2473 2.67727 19.1538 2.67727C19.0602 2.67727 18.9705 2.71391 18.9044 2.77912C18.8382 2.84434 18.801 2.93279 18.801 3.02502V5.66545C18.8002 5.78273 18.7526 5.89498 18.6685 5.97791C18.5844 6.06084 18.4705 6.10779 18.3515 6.10859H18.0706C17.9824 6.11677 17.9004 6.1571 17.8408 6.2217C17.7811 6.2863 17.748 6.37052 17.748 6.45788C17.748 6.54524 17.7811 6.62946 17.8408 6.69406C17.9004 6.75866 17.9824 6.799 18.0706 6.80717H18.3515C18.6582 6.80635 18.9519 6.68571 19.1684 6.47168C19.3849 6.25765 19.5065 5.96772 19.5065 5.66545V5.51465C19.6348 5.56422 19.7714 5.58929 19.9092 5.58851H22.4938C22.5874 5.58851 22.6771 5.55187 22.7432 5.48666C22.8094 5.42144 22.8466 5.33299 22.8466 5.24076C22.8466 5.14853 22.8094 5.06008 22.7432 4.99487C22.6771 4.92965 22.5874 4.89301 22.4938 4.89301Z" fill="#BABDBF"/>
<path d="M18.9041 2.20344H19.4035C19.4504 2.20329 19.4961 2.18948 19.535 2.16374C19.5739 2.138 19.6041 2.10149 19.622 2.0588C19.64 2.0166 19.6449 1.97007 19.636 1.92514C19.6271 1.8802 19.6049 1.83889 19.5721 1.80646L19.3224 1.56026C19.3006 1.5384 19.2746 1.52103 19.2459 1.50917C19.2172 1.49732 19.1864 1.49121 19.1553 1.49121C19.1243 1.49121 19.0935 1.49732 19.0648 1.50917C19.0361 1.52103 19.0101 1.5384 18.9883 1.56026L18.7386 1.80646C18.7055 1.83866 18.683 1.87999 18.6741 1.92502C18.6652 1.97005 18.6703 2.01668 18.6887 2.0588C18.706 2.10124 18.7357 2.13765 18.7741 2.1634C18.8124 2.18915 18.8577 2.20309 18.9041 2.20344Z" fill="#BABDBF"/>
<path d="M11.6995 5.54544C11.654 5.50413 11.5944 5.4812 11.5325 5.4812C11.4706 5.4812 11.411 5.50413 11.3655 5.54544L11.1189 5.79163C11.0851 5.82373 11.0619 5.86511 11.0522 5.91038C11.0426 5.95566 11.047 6.00275 11.0648 6.04554C11.0826 6.08834 11.1131 6.12486 11.1523 6.15037C11.1914 6.17588 11.2374 6.18921 11.2843 6.18862H11.7838C11.8302 6.18826 11.8754 6.17433 11.9138 6.14857C11.9521 6.12282 11.9819 6.08642 11.9992 6.04398C12.0176 6.00185 12.0227 5.95522 12.0138 5.91019C12.0049 5.86516 11.9824 5.82384 11.9492 5.79163L11.6995 5.54544Z" fill="#BABDBF"/>
<path d="M11.6995 4.70843C11.6543 4.66645 11.5946 4.64307 11.5325 4.64307C11.4704 4.64307 11.4107 4.66645 11.3655 4.70843L11.1189 4.95462C11.0851 4.98673 11.0619 5.0281 11.0522 5.07338C11.0426 5.11865 11.047 5.16574 11.0648 5.20854C11.0826 5.25133 11.1131 5.28785 11.1523 5.31336C11.1914 5.33888 11.2374 5.3522 11.2843 5.35161H11.7838C11.8302 5.35126 11.8754 5.33732 11.9138 5.31157C11.9521 5.28582 11.9819 5.24941 11.9992 5.20697C12.0176 5.16484 12.0227 5.11821 12.0138 5.07318C12.0049 5.02816 11.9824 4.98683 11.9492 4.95462L11.6995 4.70843Z" fill="#BABDBF"/>
<path d="M18.0425 4.74845V3.0251C18.0425 2.73943 17.9274 2.46547 17.7225 2.26347C17.5176 2.06148 17.2397 1.948 16.95 1.948C16.6602 1.948 16.3823 2.06148 16.1774 2.26347C15.9725 2.46547 15.8574 2.73943 15.8574 3.0251V4.74845C15.8574 4.78628 15.8424 4.82262 15.8156 4.84965C15.7887 4.87669 15.7522 4.89229 15.7138 4.89309H14.3903C14.2967 4.89309 14.207 4.92973 14.1409 4.99494C14.0747 5.06016 14.0376 5.14861 14.0376 5.24084C14.0376 5.33307 14.0747 5.42152 14.1409 5.48673C14.207 5.55195 14.2967 5.58859 14.3903 5.58859H14.7024V5.764C14.6895 5.97043 14.5973 6.16424 14.4444 6.30591C14.2916 6.44758 14.0897 6.52646 13.8799 6.52646C13.6701 6.52646 13.4682 6.44758 13.3154 6.30591C13.1626 6.16424 13.0703 5.97043 13.0574 5.764V4.6869C13.0574 4.59467 13.0202 4.50622 12.9541 4.44101C12.8879 4.37579 12.7982 4.33915 12.7047 4.33915C12.6111 4.33915 12.5214 4.37579 12.4552 4.44101C12.3891 4.50622 12.3519 4.59467 12.3519 4.6869V5.764C12.3519 6.16393 12.5131 6.54748 12.7999 6.83027C13.0868 7.11307 13.4758 7.27194 13.8815 7.27194C14.2871 7.27194 14.6762 7.11307 14.963 6.83027C15.2499 6.54748 15.411 6.16393 15.411 5.764V5.58859H15.7076C15.8592 5.58822 16.0079 5.54784 16.1384 5.47165C16.2861 5.6312 16.4794 5.74297 16.6927 5.79226C16.9061 5.84156 17.1296 5.82607 17.3339 5.74784C17.5382 5.66962 17.7137 5.5323 17.8374 5.35394C17.9611 5.17558 18.0271 4.96451 18.0269 4.74845M17.3214 4.74845C17.3214 4.84803 17.2813 4.94352 17.2099 5.01393C17.1385 5.08434 17.0416 5.1239 16.9406 5.1239C16.8396 5.1239 16.7427 5.08434 16.6713 5.01393C16.5999 4.94352 16.5598 4.84803 16.5598 4.74845V3.0251C16.5598 2.92552 16.5999 2.83003 16.6713 2.75962C16.7427 2.68921 16.8396 2.64965 16.9406 2.64965C17.0416 2.64965 17.1385 2.68921 17.2099 2.75962C17.2813 2.83003 17.3214 2.92552 17.3214 3.0251V4.74845Z" fill="#BABDBF"/>
<path d="M12.1834 7.90592C12.1058 7.90589 12.029 7.92119 11.9576 7.95092C11.8861 7.98064 11.8214 8.02418 11.7672 8.07898C11.7131 8.13377 11.6707 8.1987 11.6424 8.26993C11.6142 8.34116 11.6007 8.41725 11.6028 8.49371V13.0298H10.1919V6.76727C10.1811 6.62311 10.1155 6.4883 10.0081 6.3899C9.90065 6.29151 9.75945 6.23682 9.61283 6.23682C9.46621 6.23682 9.32502 6.29151 9.21761 6.3899C9.1102 6.4883 9.04453 6.62311 9.03379 6.76727V14.8609C9.03379 15.0445 8.95979 15.2207 8.82807 15.3505C8.69636 15.4804 8.51771 15.5533 8.33144 15.5533H8.0068C7.82053 15.5533 7.64188 15.4804 7.51016 15.3505C7.37845 15.2207 7.30445 15.0445 7.30445 14.8609V13.1929C7.29371 13.0488 7.22804 12.914 7.12063 12.8156C7.01322 12.7172 6.87203 12.6625 6.72541 12.6625C6.57879 12.6625 6.43759 12.7172 6.33018 12.8156C6.22278 12.914 6.15711 13.0488 6.14636 13.1929V14.8609C6.14636 15.3506 6.34369 15.8203 6.69493 16.1665C7.04617 16.5128 7.52256 16.7073 8.01929 16.7073H8.33144C8.82817 16.7073 9.30456 16.5128 9.6558 16.1665C10.007 15.8203 10.2044 15.3506 10.2044 14.8609V14.1685H12.1865C12.2624 14.1685 12.3375 14.1537 12.4075 14.1251C12.4776 14.0965 12.5413 14.0546 12.5949 14.0017C12.6485 13.9489 12.691 13.8861 12.7201 13.817C12.7491 13.7479 12.764 13.6739 12.764 13.5991V8.49371C12.7644 8.41868 12.7498 8.34432 12.721 8.27489C12.6921 8.20546 12.6497 8.14234 12.596 8.08914C12.5423 8.03595 12.4785 7.99374 12.4083 7.96494C12.338 7.93613 12.2626 7.92131 12.1865 7.92131" fill="#E91B2C"/>
<path d="M23.6144 10.4263C23.4613 10.4263 23.3144 10.4863 23.2061 10.5931C23.0978 10.6999 23.0369 10.8447 23.0369 10.9957V13.0298H21.6978V9.64468C21.7302 9.38511 21.7064 9.12171 21.6278 8.87191C21.5492 8.62212 21.4176 8.39164 21.2419 8.19573C21.0661 7.99982 20.8502 7.84295 20.6083 7.73551C20.3665 7.62807 20.1042 7.57251 19.8389 7.57251C19.5736 7.57251 19.3114 7.62807 19.0695 7.73551C18.8277 7.84295 18.6117 7.99982 18.436 8.19573C18.2602 8.39164 18.1287 8.62212 18.0501 8.87191C17.9715 9.12171 17.9476 9.38511 17.98 9.64468V11.048C17.9742 11.1265 17.9848 11.2053 18.0113 11.2796C18.0377 11.3538 18.0794 11.4219 18.1338 11.4796C18.1881 11.5372 18.2539 11.5832 18.3271 11.6147C18.4003 11.6461 18.4793 11.6623 18.5591 11.6623C18.6389 11.6623 18.7179 11.6461 18.7911 11.6147C18.8643 11.5832 18.9301 11.5372 18.9844 11.4796C19.0388 11.4219 19.0805 11.3538 19.1069 11.2796C19.1334 11.2053 19.144 11.1265 19.1381 11.048V9.65391C19.1317 9.55931 19.1451 9.46441 19.1774 9.37511C19.2097 9.28581 19.2603 9.204 19.326 9.13476C19.3917 9.06551 19.4711 9.01031 19.5594 8.97257C19.6476 8.93483 19.7427 8.91536 19.8389 8.91536C19.9351 8.91536 20.0302 8.93483 20.1185 8.97257C20.2067 9.01031 20.2861 9.06551 20.3518 9.13476C20.4175 9.204 20.4681 9.28581 20.5004 9.37511C20.5327 9.46441 20.5461 9.55931 20.5397 9.65391V13.0391H17.2777V9.74008C17.2247 9.29025 17.006 8.87529 16.6629 8.57409C16.3199 8.2729 15.8766 8.10648 15.4173 8.10648C14.9579 8.10648 14.5146 8.2729 14.1716 8.57409C13.8286 8.87529 13.6098 9.29025 13.5568 9.74008V13.5992C13.5568 13.6742 13.5719 13.7485 13.6011 13.8178C13.6303 13.887 13.6731 13.9499 13.7271 14.0028C13.781 14.0557 13.8451 14.0976 13.9155 14.126C13.9859 14.1545 14.0613 14.1689 14.1374 14.1685H16.1227V14.3408C16.1219 14.556 16.0348 14.7622 15.8805 14.9144C15.7261 15.0666 15.517 15.1525 15.2986 15.1533H14.1374C14.0578 15.1475 13.9778 15.158 13.9025 15.1841C13.8272 15.2101 13.7581 15.2512 13.6997 15.3048C13.6412 15.3584 13.5945 15.4233 13.5626 15.4954C13.5307 15.5676 13.5143 15.6454 13.5143 15.7241C13.5143 15.8028 13.5307 15.8807 13.5626 15.9528C13.5945 16.025 13.6412 16.0899 13.6997 16.1434C13.7581 16.197 13.8272 16.2381 13.9025 16.2642C13.9778 16.2903 14.0578 16.3008 14.1374 16.295H15.2955C15.821 16.2942 16.3247 16.088 16.6962 15.7217C17.0678 15.3554 17.2769 14.8589 17.2777 14.3408V14.1716H23.6144C23.6905 14.172 23.766 14.1575 23.8364 14.1291C23.9068 14.1007 23.9708 14.0588 24.0248 14.0059C24.0787 13.953 24.1216 13.8901 24.1508 13.8208C24.18 13.7516 24.195 13.6773 24.195 13.6022V10.9957C24.195 10.9206 24.18 10.8464 24.1508 10.7771C24.1216 10.7078 24.0787 10.6449 24.0248 10.592C23.9708 10.5391 23.9068 10.4972 23.8364 10.4688C23.766 10.4404 23.6905 10.4259 23.6144 10.4263ZM16.1227 13.0298H14.718V9.74008C14.7116 9.64548 14.725 9.55058 14.7573 9.46128C14.7896 9.37198 14.8402 9.29017 14.9059 9.22092C14.9716 9.15168 15.051 9.09648 15.1393 9.05874C15.2275 9.021 15.3226 9.00153 15.4188 9.00153C15.515 9.00153 15.6102 9.021 15.6984 9.05874C15.7866 9.09648 15.866 9.15168 15.9317 9.22092C15.9974 9.29017 16.048 9.37198 16.0803 9.46128C16.1126 9.55058 16.126 9.64548 16.1196 9.74008L16.1227 13.0298Z" fill="#E91B2C"/>
<path d="M23.168 7.92125H24.0389C24.1374 7.92133 24.2336 7.89257 24.3154 7.83862C24.3972 7.78467 24.4609 7.70796 24.4983 7.61824C24.5358 7.52852 24.5454 7.42985 24.5258 7.33476C24.5063 7.23966 24.4585 7.15244 24.3886 7.08419L23.9547 6.64719C23.9086 6.60169 23.8538 6.56559 23.7936 6.54097C23.7333 6.51634 23.6687 6.50366 23.6035 6.50366C23.5383 6.50366 23.4737 6.51634 23.4134 6.54097C23.3532 6.56559 23.2984 6.60169 23.2523 6.64719L22.8184 7.07495C22.7485 7.14321 22.7007 7.23043 22.6812 7.32552C22.6616 7.42061 22.6712 7.51929 22.7086 7.60901C22.7461 7.69873 22.8098 7.77544 22.8916 7.82939C22.9734 7.88334 23.0696 7.9121 23.168 7.91201" fill="#E91B2C"/>
<path d="M23.9547 8.27519C23.9088 8.22932 23.8541 8.1929 23.7938 8.16803C23.7335 8.14317 23.6688 8.13037 23.6035 8.13037C23.5382 8.13037 23.4735 8.14317 23.4132 8.16803C23.3529 8.1929 23.2982 8.22932 23.2523 8.27519L22.8184 8.70295C22.748 8.77079 22.6998 8.85785 22.68 8.95292C22.6602 9.048 22.6697 9.14674 22.7073 9.23644C22.7449 9.32615 22.8089 9.4027 22.891 9.45625C22.9731 9.5098 23.0696 9.5379 23.168 9.53694H24.039C24.1374 9.5379 24.2339 9.5098 24.316 9.45625C24.3981 9.4027 24.4621 9.32615 24.4997 9.23644C24.5373 9.14674 24.5468 9.048 24.527 8.95292C24.5072 8.85785 24.459 8.77079 24.3886 8.70295L23.9547 8.27519Z" fill="#E91B2C"/>
<path d="M12.1833 16.6458H11.3124C11.2144 16.6466 11.1188 16.6757 11.0375 16.7297C10.9561 16.7837 10.8927 16.86 10.8551 16.9493C10.8175 17.0385 10.8074 17.1367 10.826 17.2316C10.8446 17.3265 10.8911 17.4139 10.9597 17.4829L11.3967 17.9106C11.4426 17.9559 11.4971 17.9917 11.5571 18.016C11.6171 18.0403 11.6814 18.0526 11.7463 18.0522C11.8117 18.0526 11.8765 18.0404 11.937 18.0161C11.9975 17.9918 12.0526 17.956 12.099 17.9106L12.5329 17.4829C12.6022 17.4139 12.6492 17.3262 12.6681 17.2309C12.687 17.1357 12.6769 17.037 12.6391 16.9474C12.6029 16.8571 12.5402 16.7796 12.459 16.7247C12.3778 16.6699 12.2818 16.6402 12.1833 16.6396" fill="#E91B2C"/>
<path d="M12.1834 15.03H11.3125C11.2137 15.0308 11.1174 15.0605 11.0357 15.1153C10.954 15.1701 10.8907 15.2475 10.8536 15.3378C10.814 15.4281 10.8029 15.5281 10.8219 15.6247C10.8408 15.7214 10.8889 15.8101 10.9597 15.8794L11.3968 16.3102C11.4426 16.3555 11.4972 16.3913 11.5572 16.4156C11.6172 16.4399 11.6815 16.4522 11.7464 16.4518C11.8117 16.4523 11.8765 16.44 11.9371 16.4157C11.9976 16.3914 12.0527 16.3556 12.0991 16.3102L12.533 15.8794C12.6019 15.811 12.6487 15.724 12.6676 15.6295C12.6866 15.5349 12.6768 15.4369 12.6394 15.3478C12.6021 15.2587 12.5389 15.1825 12.4577 15.1287C12.3766 15.0749 12.2812 15.0459 12.1834 15.0454" fill="#E91B2C"/>
</svg>
