<svg width="34" height="44" viewBox="0 0 34 44" fill="none" xmlns="http://www.w3.org/2000/svg">
<path fill-rule="evenodd" clip-rule="evenodd" d="M33.329 2.82804V13.613L33.328 13.7841C33.3102 15.9223 32.8786 18.0369 32.057 20.0111C31.2211 22.0172 30.0012 23.8407 28.466 25.3791H28.43V25.4161C26.1085 27.7363 23.1705 29.2992 20 29.9441V44H13V29.8723C9.94239 29.1826 7.13343 27.6426 4.90302 25.4201V25.3831H4.86603C3.33057 23.8449 2.11066 22.0213 1.27503 20.0151C0.62537 18.4528 0.218631 16.8004 0.0690343 15.1151V15.0981C0.0681798 15.0867 0.0678136 15.0754 0.0679357 15.0641C0.0680578 15.0564 0.068424 15.0487 0.0690343 15.0411C0.0692785 14.8876 0.130375 14.7405 0.238895 14.6319C0.347416 14.5234 0.49451 14.4623 0.648014 14.462H4.414C4.55628 14.4625 4.69342 14.5153 4.79914 14.6105C4.90485 14.7058 4.97174 14.8366 4.987 14.9781V14.984L5.00299 15.1161C5.24414 16.9702 5.92218 18.7406 6.98127 20.2815C8.04041 21.8223 9.45032 23.0896 11.095 23.979C12.0247 24.4799 13.0176 24.8532 14.047 25.0891C16.3995 25.6313 18.862 25.4357 21.0995 24.5289C23.3369 23.6221 25.2408 22.0482 26.552 20.0211C27.6337 18.3579 28.2736 16.4463 28.411 14.467C28.4246 14.2869 28.4336 14.1055 28.4382 13.9232C28.4408 13.8241 28.442 13.7247 28.442 13.6251V7.78407C28.4423 7.46189 28.3791 7.1428 28.256 6.84504C28.0713 6.39634 27.7571 6.01276 27.3535 5.74332C26.95 5.47385 26.4753 5.33067 25.99 5.33204H14.615C14.4653 5.33164 14.3215 5.27335 14.2137 5.16932C14.106 5.06532 14.0427 4.92368 14.037 4.77406V0.99305C14.0377 0.879006 14.072 0.767677 14.1354 0.67292C14.1989 0.578163 14.2888 0.504158 14.394 0.46006L14.418 0.45005C14.4331 0.444405 14.4485 0.4394 14.464 0.435066L14.485 0.430061L14.505 0.425057C14.5413 0.418221 14.5781 0.414894 14.615 0.415047H30.883C31.5265 0.413429 32.1446 0.666084 32.6027 1.11802C33.0609 1.56995 33.3219 2.18458 33.329 2.82804ZM11.08 4.73804V0.99305C11.0812 0.847969 11.0272 0.707832 10.929 0.601051L10.914 0.586067C10.8604 0.532143 10.7967 0.489357 10.7265 0.460182C10.6563 0.431007 10.581 0.415993 10.505 0.416054H2.45002C2.12806 0.415657 1.80921 0.478798 1.51172 0.601845C1.21424 0.724892 0.943973 0.905434 0.716373 1.13313C0.488773 1.36082 0.308353 1.63117 0.185428 1.92872C0.0625036 2.22623 -0.000545758 2.54511 3.55873e-06 2.86704V10.9251C0.000552875 11.0782 0.061588 11.2249 0.169864 11.3332C0.278141 11.4415 0.424869 11.5025 0.578007 11.5031H4.323C4.34845 11.5031 4.37378 11.5014 4.39899 11.4981L4.43299 11.492L4.44898 11.4891C4.47101 11.4843 4.49268 11.4783 4.51398 11.471L4.54401 11.4591C4.57172 11.4476 4.59845 11.4341 4.62397 11.4185C4.63837 11.4096 4.65241 11.4002 4.66602 11.3901L4.69098 11.3701C4.75702 11.3161 4.81018 11.248 4.8465 11.1708C4.88288 11.0937 4.90149 11.0093 4.901 10.924V5.31705H10.501C10.5417 5.31709 10.5822 5.31278 10.6219 5.3043C10.6561 5.29697 10.6896 5.28654 10.722 5.27305C10.8275 5.22877 10.9177 5.15446 10.9814 5.05933C11.045 4.96421 11.0793 4.85249 11.08 4.73804ZM13.701 11.806C13.784 11.5161 13.824 11.216 13.824 10.9161L13.825 10.9171C13.8243 10.4717 13.7326 10.0312 13.5555 9.62263C13.3784 9.21406 13.1196 8.84599 12.795 8.54105C12.4298 8.19324 11.9891 7.9347 11.5073 7.78568C11.0255 7.63667 10.5158 7.6012 10.018 7.68204H10.008C9.84699 7.70805 9.68702 7.74604 9.53199 7.79606C8.87171 8.00977 8.29615 8.42725 7.88794 8.98853C7.47974 9.54981 7.25989 10.226 7.26001 10.9201V10.9681L7.26203 11.04C7.26331 11.0781 7.26526 11.1161 7.26801 11.1541L7.27301 11.208C7.284 11.3388 7.30304 11.4687 7.33002 11.5971L7.33802 11.6361L7.34803 11.673C7.49683 12.3034 7.8288 12.8755 8.30213 13.3175C8.77552 13.7596 9.36902 14.0516 10.008 14.1571C10.5073 14.2402 11.0192 14.206 11.5031 14.0573C11.9869 13.9085 12.4296 13.6493 12.796 13.3001C12.94 13.165 13.071 13.018 13.187 12.858C13.421 12.5421 13.596 12.186 13.701 11.806Z" fill="#E4122C"/>
</svg>
