<svg width="30" height="30" viewBox="0 0 30 30" fill="none" xmlns="http://www.w3.org/2000/svg">
<mask id="mask0_812_194" style="mask-type:luminance" maskUnits="userSpaceOnUse" x="0" y="0" width="30" height="30">
<path d="M30 0H0V30H30V0Z" fill="white"/>
</mask>
<g mask="url(#mask0_812_194)">
<path d="M12.1649 5.28691C12.2926 5.28691 12.419 5.31205 12.5369 5.3609C12.6548 5.40974 12.762 5.48134 12.8522 5.5716C12.9425 5.66186 13.0141 5.76901 13.0629 5.88694C13.1118 6.00487 13.1369 6.13126 13.1369 6.25891V12.1659C13.1369 12.4237 13.0345 12.6709 12.8522 12.8532C12.67 13.0355 12.4227 13.1379 12.1649 13.1379H6.25293C5.9953 13.1374 5.74838 13.0348 5.56621 12.8526C5.38403 12.6705 5.28146 12.4235 5.28093 12.1659V6.25791C5.28146 6.00028 5.38403 5.75335 5.56621 5.57118C5.74838 5.38901 5.9953 5.28643 6.25293 5.28591L12.1649 5.28691ZM12.1649 3.87991H6.25293C5.62268 3.88044 5.01845 4.13124 4.57308 4.57717C4.12771 5.02311 3.87766 5.62766 3.87793 6.25791V12.1659C3.87793 12.796 4.12809 13.4003 4.57343 13.846C5.01877 14.2917 5.62286 14.5424 6.25293 14.5429H12.1649C12.795 14.5424 13.3991 14.2917 13.8444 13.846C14.2898 13.4003 14.5399 12.796 14.5399 12.1659V6.25791C14.5402 5.94575 14.479 5.63661 14.3598 5.34812C14.2405 5.05962 14.0657 4.79744 13.8451 4.57653C13.6246 4.35562 13.3627 4.18031 13.0744 4.06061C12.7861 3.94091 12.4771 3.87917 12.1649 3.87891V3.87991Z" fill="#052A3A"/>
<path d="M12.1649 16.8619C12.4227 16.8619 12.67 16.9643 12.8522 17.1466C13.0345 17.3289 13.1369 17.5761 13.1369 17.8339V23.7429C13.1369 24.0007 13.0345 24.2479 12.8522 24.4302C12.67 24.6125 12.4227 24.7149 12.1649 24.7149H6.25293C5.9953 24.7144 5.74838 24.6118 5.56621 24.4296C5.38404 24.2475 5.28146 24.0005 5.28093 23.7429V17.8299C5.28146 17.5723 5.38404 17.3254 5.56621 17.1432C5.74838 16.961 5.9953 16.8584 6.25293 16.8579H12.1649M12.1649 15.4519H6.25293C5.62269 15.4524 5.01845 15.7032 4.57308 16.1492C4.12771 16.5951 3.87767 17.1997 3.87793 17.8299V23.7389C3.87754 24.0511 3.93866 24.3604 4.05782 24.649C4.17697 24.9376 4.35182 25.1999 4.57237 25.4209C4.79292 25.6419 5.05486 25.8173 5.34321 25.9371C5.63157 26.0569 5.9407 26.1186 6.25293 26.1189H12.1649C12.7954 26.1189 13.4 25.8685 13.8457 25.4227C14.2915 24.9769 14.5419 24.3723 14.5419 23.7419V17.8299C14.5411 17.2 14.2904 16.5962 13.8447 16.1511C13.399 15.7059 12.7948 15.4559 12.1649 15.4559V15.4519Z" fill="#052A3A"/>
<path d="M23.7429 5.28693C24.0005 5.28746 24.2474 5.39004 24.4296 5.57221C24.6118 5.75438 24.7144 6.0013 24.7149 6.25893V12.1659C24.7144 12.4236 24.6118 12.6705 24.4296 12.8527C24.2474 13.0348 24.0005 13.1374 23.7429 13.1379H17.8279C17.5706 13.1371 17.3242 13.0344 17.1425 12.8522C16.9609 12.67 16.8589 12.4232 16.8589 12.1659V6.25793C16.8589 6.00066 16.9609 5.75388 17.1425 5.57168C17.3242 5.38948 17.5706 5.28672 17.8279 5.28593H23.7389M23.7389 3.87993H17.8279C17.5158 3.87993 17.2068 3.94143 16.9185 4.06091C16.6303 4.18039 16.3684 4.35551 16.1478 4.57626C15.9272 4.79701 15.7523 5.05906 15.6331 5.34744C15.5139 5.63582 15.4526 5.94487 15.4529 6.25693V12.1659C15.4524 12.4782 15.5134 12.7874 15.6325 13.076C15.7516 13.3646 15.9265 13.6269 16.1471 13.8479C16.3677 14.0689 16.6297 14.2442 16.9181 14.3638C17.2065 14.4834 17.5157 14.5449 17.8279 14.5449H23.7389C24.0516 14.5457 24.3614 14.4847 24.6505 14.3655C24.9396 14.2462 25.2023 14.0711 25.4236 13.85C25.6448 13.629 25.8202 13.3664 25.9397 13.0774C26.0592 12.7884 26.1204 12.4787 26.1199 12.1659V6.25793C26.1205 5.94545 26.0595 5.63592 25.9403 5.34706C25.8212 5.0582 25.6461 4.79571 25.4253 4.57461C25.2045 4.35352 24.9422 4.17817 24.6535 4.05862C24.3648 3.93907 24.0554 3.87767 23.7429 3.87793L23.7389 3.87993Z" fill="#052A3A"/>
<path d="M20.789 26.1219C20.6033 26.1219 20.4253 26.0481 20.294 25.9168C20.1627 25.7856 20.089 25.6075 20.089 25.4219V16.1569C20.089 15.9704 20.1631 15.7916 20.2949 15.6598C20.4267 15.5279 20.6055 15.4539 20.792 15.4539C20.9784 15.4539 21.1572 15.5279 21.2891 15.6598C21.4209 15.7916 21.495 15.9704 21.495 16.1569V25.4189C21.495 25.6045 21.4212 25.7826 21.29 25.9138C21.1587 26.0451 20.9806 26.1189 20.795 26.1189L20.789 26.1219Z" fill="#E4122C"/>
<path d="M25.4199 21.49H16.1559C15.9694 21.49 15.7906 21.4159 15.6588 21.2841C15.5269 21.1522 15.4529 20.9734 15.4529 20.787C15.4529 20.6005 15.5269 20.4217 15.6588 20.2899C15.7906 20.1581 15.9694 20.084 16.1559 20.084H25.4199C25.6063 20.084 25.7851 20.1581 25.917 20.2899C26.0488 20.4217 26.1229 20.6005 26.1229 20.787C26.1229 20.9734 26.0488 21.1522 25.917 21.2841C25.7851 21.4159 25.6063 21.49 25.4199 21.49Z" fill="#E4122C"/>
</g>
</svg>
