<svg width="26" height="28" viewBox="0 0 26 28" fill="none" xmlns="http://www.w3.org/2000/svg">
<path d="M15.5969 23.625C15.5969 25.2656 14.2625 26.6 12.6219 26.6H4.375C2.73438 26.6 1.42188 25.2656 1.42188 23.625V4.39687C1.42188 2.75625 2.75625 1.42188 4.375 1.42188H12.6219C13.7813 1.42188 14.7875 2.07812 15.2688 3.0625C15.3781 3.25938 15.4438 3.47812 15.5094 3.69687C15.5531 3.91562 15.5969 4.15625 15.5969 4.39687V4.44062C16.0125 4.17812 16.4938 3.95937 16.9969 3.82812C16.975 3.60938 16.9312 3.39062 16.8656 3.17188C16.8 2.95312 16.7344 2.73438 16.6469 2.5375C15.9688 1.02813 14.4594 0 12.7313 0H4.30938C1.925 0 0 1.925 0 4.30938V23.7125C0 26.075 1.925 28 4.30938 28H12.7313C15.1156 28 17.0188 26.075 17.0406 23.6906V13.6719C16.5375 13.5406 16.0563 13.3219 15.6188 13.0375V23.625H15.5969Z" fill="#052A3A"/>
<path d="M8.50938 10.6313C6.65 10.6313 5.14062 12.1407 5.14062 14.0001C5.14062 15.8595 6.65 17.3688 8.50938 17.3688C10.3688 17.3688 11.8781 15.8595 11.8781 14.0001C11.8781 12.1407 10.3688 10.6313 8.50938 10.6313ZM8.50938 15.947C7.4375 15.947 6.5625 15.072 6.5625 14.0001C6.5625 12.9282 7.4375 12.0532 8.50938 12.0532C9.58125 12.0532 10.4562 12.9282 10.4562 14.0001C10.4781 15.072 9.60313 15.947 8.50938 15.947Z" fill="#E4122C"/>
<path d="M8.50938 23.3845C7.91875 23.3845 7.4375 22.9032 7.4375 22.3126C7.4375 21.722 7.91875 21.2407 8.50938 21.2407C9.1 21.2407 9.58125 21.722 9.58125 22.3126C9.58125 22.9032 9.1 23.3845 8.50938 23.3845Z" fill="#052A3A"/>
<path d="M8.50938 6.75947C7.91875 6.75947 7.4375 6.27822 7.4375 5.6876C7.4375 5.09697 7.91875 4.61572 8.50938 4.61572C9.1 4.61572 9.58125 5.09697 9.58125 5.6876C9.58125 6.27822 9.1 6.75947 8.50938 6.75947Z" fill="#052A3A"/>
<path d="M22.5688 10.8939C22.5469 10.8939 22.5469 10.8939 22.5251 10.8939C22.3063 10.8939 22.1313 10.7407 22.1094 10.522C21.8688 8.26887 20.2063 6.49699 18.0407 6.05949C17.8876 6.03762 17.7344 6.01574 17.6032 5.99387C17.3626 5.97199 17.2094 5.75324 17.2313 5.51262C17.2532 5.27199 17.4719 5.11887 17.7126 5.14074C17.8219 5.16262 17.9532 5.16262 18.0626 5.18449C20.6876 5.62199 22.6782 7.72199 22.9844 10.4126C22.9844 10.6532 22.8094 10.872 22.5688 10.8939Z" fill="#E4122C"/>
<path d="M20.6657 11.5063C20.6438 11.5063 20.6438 11.5063 20.6219 11.5063C20.4032 11.5063 20.2282 11.3532 20.2063 11.1345C20.0532 9.80008 19.2219 8.70633 18.0407 8.20321C17.7125 8.05008 17.3625 7.96258 16.9907 7.91883C16.7938 7.89696 16.6625 7.76571 16.6188 7.59071C16.5969 7.54696 16.5969 7.50321 16.5969 7.43758C16.5969 7.41571 16.5969 7.39383 16.6188 7.37196C16.6625 7.17508 16.8594 7.02196 17.0782 7.04383C17.4063 7.08758 17.7344 7.15321 18.0407 7.26258C19.6594 7.80946 20.8625 9.25321 21.0594 11.0251C21.0594 11.2657 20.8844 11.4845 20.6657 11.5063Z" fill="#E4122C"/>
<path d="M18.5001 11.8562C18.4782 11.8562 18.4782 11.8562 18.4563 11.8562C18.2376 11.8562 18.0626 11.7031 18.0407 11.4843C18.0407 11.4843 18.0407 11.4843 18.0407 11.4625C17.9532 10.7187 17.3626 10.15 16.6188 10.0625C16.3782 10.0406 16.2251 9.82183 16.2469 9.60308C16.2688 9.4062 16.4219 9.25308 16.6188 9.2312C16.6407 9.2312 16.6844 9.2312 16.7063 9.2312C17.2094 9.29683 17.6688 9.4937 18.0407 9.79995C18.5001 10.1937 18.8063 10.7625 18.8938 11.3968C18.8938 11.6375 18.7407 11.8343 18.5001 11.8562Z" fill="#E4122C"/>
<path d="M25.15 5.92813C24.1657 3.89375 22.175 2.51563 19.9219 2.31875C19.7469 2.29688 19.5282 2.29688 19.3532 2.29688C19.3313 2.29688 19.2875 2.29688 19.2657 2.29688C19.1782 2.29688 19.1125 2.29688 19.025 2.29688C18.5438 2.31875 18.0844 2.38437 17.6469 2.51563C17.1657 2.64688 16.7282 2.82188 16.2907 3.0625C14.2563 4.15625 12.9 6.3 12.8782 8.72813C12.8782 8.85938 12.8782 9.0125 12.9 9.14375C12.9219 9.64688 13.0313 10.15 13.1844 10.6313C13.2719 10.9375 13.4032 11.2438 13.5344 11.5281C14.2125 12.9063 15.3063 13.9563 16.5969 14.5688C17.0563 14.7875 17.5375 14.9406 18.0188 15.05C19.3532 15.3344 20.7969 15.1813 22.1313 14.5469C25.3469 12.9938 26.7032 9.14375 25.15 5.92813ZM24.4938 9.23125C24.2532 11.8781 22 13.8906 19.3313 13.825C18.8719 13.825 18.4344 13.7594 18.0188 13.65C17.5157 13.5188 17.0344 13.3 16.5969 13.0156C15.9844 12.6438 15.4813 12.1188 15.0657 11.5063C14.8688 11.2219 14.7157 10.9156 14.6063 10.6094C14.4094 10.1281 14.3 9.64688 14.2563 9.12188C14.2344 8.99063 14.2344 8.8375 14.2344 8.70625C14.2344 6.9125 15.175 5.31563 16.5969 4.39688C17.0125 4.13438 17.4938 3.91562 17.9969 3.78437C18.325 3.69687 18.675 3.63125 19.025 3.60938C19.1125 3.5875 19.1782 3.5875 19.2657 3.5875C19.2875 3.5875 19.3313 3.56562 19.3532 3.5875C19.55 3.5875 19.7469 3.60938 19.9219 3.63125C22.7219 3.9375 24.7782 6.43125 24.4938 9.23125Z" fill="#052A3A"/>
</svg>
