 <svg
                width="27"
                height="25"
                viewBox="0 0 27 25"
                fill="none"
                xmlns="http://www.w3.org/2000/svg"
              >
                <path
                  d="M25.7877 10.1221L21.5486 5.63551L17.3215 1.13754C16.4123 0.175261 16.1898 0.180653 15.2034 1.11258L15.2026 1.11339C14.0241 2.22688 12.8456 3.34037 11.6557 4.44184C10.8137 5.23738 10.7911 5.62304 11.598 6.47706C12.0355 6.94014 12.4723 7.40393 12.9091 7.86773C14.2195 9.25916 15.5299 10.6506 16.8606 12.0228C17.3045 12.4686 17.2624 12.7132 16.8181 13.1103C15.3937 14.422 13.9884 15.7539 12.5832 17.0859C12.1148 17.5299 11.6465 17.9738 11.1774 18.417C10.4316 19.1217 10.4217 19.4726 11.1376 20.2304C12.3417 21.5288 13.5577 22.8158 14.7744 24.0795C15.445 24.7891 15.8079 24.7877 16.5296 24.1058C17.5395 23.1516 18.5521 22.1975 19.5651 21.2429C21.5924 19.3324 23.6215 17.4203 25.6351 15.5026C26.0004 15.1605 26.2943 14.7494 26.4998 14.2932C26.7053 13.8369 26.8185 13.3444 26.8327 12.8442C26.8468 12.3439 26.7618 11.8458 26.5825 11.3786C26.4031 10.9114 26.133 10.4844 25.7877 10.1221ZM0.982075 12.0537C0.951092 13.3777 1.44173 14.6609 2.34819 15.6264C3.25705 16.5851 4.50953 17.1435 5.83012 17.1788C7.1507 17.2141 8.43119 16.7233 9.38992 15.8144C10.3486 14.9056 10.9071 13.6531 10.9423 12.3325C10.9776 11.0119 10.4868 9.73141 9.57795 8.77268C7.69137 6.77596 4.43969 6.68373 2.51381 8.54891C1.56318 9.47098 1.01306 10.7298 0.982075 12.0537Z"
                  fill="#E1222F"
                />
              </svg>