<svg width="30" height="30" viewBox="0 0 30 30" fill="none" xmlns="http://www.w3.org/2000/svg">
<mask id="mask0_812_160" style="mask-type:luminance" maskUnits="userSpaceOnUse" x="0" y="0" width="30" height="30">
<path d="M30 0H0V30H30V0Z" fill="white"/>
</mask>
<g mask="url(#mask0_812_160)">
<path d="M15.0008 24.5181C12.7506 24.5149 10.5935 23.6196 9.0024 22.0285C7.41128 20.4374 6.51599 18.2803 6.51282 16.0301C6.53057 15.7811 6.64201 15.5481 6.82468 15.378C7.00736 15.2079 7.2477 15.1133 7.49732 15.1133C7.74693 15.1133 7.98728 15.2079 8.16995 15.378C8.35263 15.5481 8.46406 15.7811 8.48182 16.0301C8.48182 16.8858 8.65036 17.7331 8.97782 18.5236C9.30528 19.3142 9.78524 20.0325 10.3903 20.6376C10.9954 21.2427 11.7137 21.7226 12.5043 22.0501C13.2948 22.3775 14.1421 22.5461 14.9978 22.5461C15.8535 22.5461 16.7008 22.3775 17.4914 22.0501C18.2819 21.7226 19.0003 21.2427 19.6053 20.6376C20.2104 20.0325 20.6904 19.3142 21.0178 18.5236C21.3453 17.7331 21.5138 16.8858 21.5138 16.0301C21.5332 15.7824 21.6452 15.5511 21.8276 15.3824C22.01 15.2137 22.2494 15.12 22.4978 15.12C22.7463 15.12 22.9856 15.2137 23.168 15.3824C23.3504 15.5511 23.4625 15.7824 23.4818 16.0301C23.48 18.2795 22.5861 20.4363 20.9962 22.0275C19.4063 23.6187 17.2502 24.5144 15.0008 24.5181Z" fill="#E4122C"/>
<path d="M26.9789 13.684C26.9804 12.0227 26.3705 10.4189 25.2654 9.17842C24.1603 7.93796 22.6373 7.14758 20.9869 6.95797C20.9854 5.36017 20.3493 3.82839 19.2184 2.69961C18.0876 1.57083 16.5547 0.937509 14.9569 0.938967C13.3591 0.940426 11.8273 1.57655 10.6985 2.70739C9.56973 3.83824 8.93641 5.37117 8.93787 6.96897C7.31402 7.16574 5.8178 7.94839 4.73003 9.17001C3.64226 10.3916 3.03772 11.9683 3.02987 13.604L2.08887 22.296C2.09045 24.0878 2.80256 25.8059 4.06904 27.0736C5.33552 28.3412 7.053 29.0548 8.84487 29.058H21.1449C22.9438 29.0532 24.6671 28.3342 25.9359 27.059C27.2047 25.7838 27.9151 24.0569 27.9109 22.258V22.225L26.9789 13.684ZM14.9429 2.43597C16.1457 2.43543 17.3014 2.90361 18.1647 3.74116C19.028 4.5787 19.531 5.71968 19.5669 6.92197H10.3499C10.3824 5.72275 10.881 4.58342 11.7399 3.74584C12.5987 2.90826 13.7502 2.43839 14.9499 2.43597H14.9429ZM21.1359 27.658H8.84487C7.43514 27.6602 6.08145 27.1062 5.07771 26.1163C4.07398 25.1265 3.50125 23.7806 3.48387 22.371L4.42187 13.684C4.42147 12.9799 4.55978 12.2826 4.8289 11.6319C5.09801 10.9813 5.49266 10.39 5.9903 9.89194C6.48794 9.39383 7.07883 8.99863 7.72922 8.72891C8.37961 8.45919 9.07677 8.32023 9.78087 8.31997H20.2219C20.9306 8.32311 21.6318 8.46591 22.2854 8.74021C22.939 9.0145 23.532 9.41492 24.0308 9.91856C24.5295 10.4222 24.924 11.0192 25.1919 11.6754C25.4598 12.3316 25.5957 13.0342 25.5919 13.743V13.758L26.5199 22.292C26.5183 23.7162 25.9512 25.0815 24.9433 26.0877C23.9353 27.094 22.5691 27.6588 21.1449 27.658H21.1359Z" fill="#052A3A"/>
</g>
</svg>
