<svg width="30" height="30" viewBox="0 0 30 30" fill="none" xmlns="http://www.w3.org/2000/svg">
<mask id="mask0_812_186" style="mask-type:luminance" maskUnits="userSpaceOnUse" x="0" y="0" width="30" height="30">
<path d="M30 0H0V30H30V0Z" fill="white"/>
</mask>
<g mask="url(#mask0_812_186)">
<path d="M24.7281 21.8619C24.7226 21.9285 24.7226 21.9954 24.7281 22.0619V26.6039C24.7229 26.8566 24.6364 27.1008 24.4812 27.3003C24.3261 27.4997 24.1107 27.6438 23.8671 27.7109C23.6861 27.7448 23.5021 27.7596 23.3181 27.7549H3.97906C3.69008 27.7407 3.41674 27.6194 3.21215 27.4148C3.00756 27.2103 2.88635 26.9369 2.87206 26.6479V11.4359C2.87567 11.1944 2.95474 10.96 3.0982 10.7656C3.24165 10.5712 3.4423 10.4266 3.67206 10.3519C3.84862 10.3082 4.0302 10.288 4.21206 10.2919H23.5751C23.8763 10.299 24.1633 10.4218 24.3765 10.6348C24.5897 10.8478 24.7127 11.1347 24.7201 11.4359V14.9239C24.7213 14.9416 24.7213 14.9593 24.7201 14.9769C24.7245 15.0309 24.7074 15.0844 24.6726 15.1258C24.6378 15.1672 24.588 15.1931 24.5341 15.1979C24.4412 15.2128 24.3471 15.2188 24.2531 15.2159H21.7531C21.2457 15.2254 20.7479 15.3554 20.3007 15.5952C19.8535 15.8349 19.4697 16.1776 19.1811 16.5949C18.7018 17.2458 18.4789 18.0503 18.5551 18.8549C18.5939 19.4585 18.8018 20.039 19.1551 20.5299C19.4652 20.9772 19.8811 21.3408 20.3658 21.5884C20.8505 21.836 21.3889 21.9598 21.9331 21.9489H27.8731C28.0427 21.944 28.2044 21.8763 28.3271 21.759C28.4497 21.6417 28.5245 21.4832 28.5371 21.3139C28.5371 21.2589 28.5371 21.2079 28.5371 21.1549V15.8549C28.5281 15.6832 28.4548 15.5212 28.3317 15.4011C28.2087 15.2811 28.0449 15.2117 27.8731 15.2069H26.5301C26.4561 15.209 26.3821 15.2039 26.3091 15.1919C26.1591 15.1649 26.1191 15.1189 26.1091 14.9709V11.6539C26.1122 11.446 26.0945 11.2383 26.0561 11.0339C25.9735 10.5678 25.7661 10.1327 25.4561 9.77494C25.4181 9.73294 25.3811 9.69294 25.3411 9.65294C24.8887 9.21803 24.298 8.95577 23.6721 8.91194C23.4511 8.89694 23.2291 8.91194 23.0081 8.91194H22.5651C22.4262 8.92894 22.2854 8.91772 22.1511 8.87894C22.0268 8.82257 21.9115 8.7481 21.8091 8.65794L21.1451 8.16694L17.7701 5.62994L16.2381 4.47894L14.6091 3.25294L13.3171 2.28594L12.7841 1.88594C12.4091 1.60794 12.0221 1.32494 11.6461 1.03594C11.506 0.916011 11.3302 0.845704 11.1461 0.835938C11.024 0.841808 10.9052 0.877057 10.7997 0.938688C10.6942 1.00032 10.6051 1.08651 10.5401 1.18994C10.4841 1.26294 10.4291 1.33594 10.3711 1.41094L10.2711 1.54194L9.38206 2.66894C7.81339 4.69294 6.24406 6.71527 4.67406 8.73594C4.63386 8.79508 4.57925 8.84301 4.51539 8.87521C4.45153 8.9074 4.38052 8.92279 4.30906 8.91994C4.01891 8.91208 3.72879 8.93656 3.44406 8.99294C3.05125 9.08503 2.68589 9.26902 2.37802 9.52978C2.07015 9.79054 1.82854 10.1206 1.67306 10.4929C1.54744 10.7835 1.47626 11.0947 1.46306 11.4109V26.2109C1.46107 26.4434 1.47645 26.6757 1.50906 26.9059C1.54361 27.1687 1.61814 27.4247 1.73006 27.6649C1.83893 27.8959 1.98074 28.1098 2.15106 28.2999C2.39142 28.5666 2.68555 28.7792 3.01406 28.9239C3.22646 29.0186 3.44936 29.0878 3.67806 29.1299C3.83773 29.1527 3.99878 29.1643 4.16006 29.1649H23.8451L24.1901 29.0719C24.7344 28.9354 25.218 28.6222 25.5653 28.1814C25.9125 27.7406 26.1038 27.1971 26.1091 26.6359C26.1221 26.0359 26.1091 25.4209 26.1091 24.8279V22.0059C26.1135 21.958 26.1135 21.9098 26.1091 21.8619M14.6671 8.80394C14.656 8.83964 14.6341 8.87099 14.6043 8.89359C14.5745 8.91618 14.5384 8.92889 14.5011 8.92994H11.2211C11.1841 8.93326 11.147 8.93326 11.1101 8.92994C11.0804 8.92502 11.0522 8.91347 11.0276 8.89616C11.0031 8.87884 10.9827 8.85621 10.9681 8.82994C10.9549 8.80229 10.9481 8.77206 10.9481 8.74144C10.9481 8.71082 10.9549 8.68059 10.9681 8.65294C10.9962 8.60088 11.0297 8.55194 11.0681 8.50694L11.0831 8.48494L12.0241 7.23494L12.0461 7.19994C12.0591 7.18694 12.0681 7.16894 12.0841 7.15394C12.1641 7.06294 12.2151 7.05394 12.2501 7.05394C12.3023 7.05811 12.3523 7.0772 12.3941 7.10894C12.5751 7.21994 12.7531 7.32994 12.9271 7.45594L14.4591 8.45594C14.5129 8.48961 14.564 8.52739 14.6121 8.56894C14.6431 8.59505 14.6644 8.63094 14.6724 8.67073C14.6804 8.71052 14.6746 8.75185 14.6561 8.78794L14.6671 8.80394ZM18.3901 8.92994H17.8741C17.7189 8.92757 17.5686 8.87572 17.4451 8.78194C17.0551 8.51394 16.6621 8.25294 16.2681 7.99194L15.3031 7.34794C14.3697 6.7326 13.4437 6.1196 12.5251 5.50894C12.4183 5.43266 12.2983 5.37703 12.1711 5.34494C12.1215 5.33635 12.0713 5.332 12.0211 5.33194C11.9171 5.33174 11.8147 5.35708 11.7228 5.40573C11.6309 5.45438 11.5524 5.52484 11.4941 5.61094L10.6811 6.68094L10.3811 7.08094C9.97373 7.62094 9.56873 8.1626 9.16606 8.70594C9.12717 8.77309 9.07132 8.82886 9.00411 8.86764C8.93689 8.90643 8.86067 8.92687 8.78306 8.92694H6.75906C6.73044 8.92928 6.70168 8.92928 6.67306 8.92694C6.64052 8.92331 6.60937 8.91174 6.58235 8.89326C6.55532 8.87478 6.53325 8.84994 6.51806 8.82094C6.50265 8.792 6.49459 8.75972 6.49459 8.72694C6.49459 8.69415 6.50265 8.66187 6.51806 8.63294C6.54706 8.58269 6.58053 8.53517 6.61806 8.49094L9.76706 4.42394L11.0001 2.82394C11.1421 2.63994 11.2211 2.54694 11.3001 2.54694C11.4264 2.58063 11.5421 2.64603 11.6361 2.73694L13.6831 4.27294L19.0831 8.33194L19.2671 8.46894C19.3091 8.49702 19.3471 8.53066 19.3801 8.56894C19.4055 8.59639 19.4228 8.63044 19.4299 8.66721C19.4369 8.70398 19.4335 8.742 19.4201 8.77694C19.4048 8.81086 19.3812 8.84037 19.3515 8.86275C19.3218 8.88512 19.2869 8.89963 19.2501 8.90494C19.2251 8.90706 19.2 8.90706 19.1751 8.90494L18.3901 8.92994ZM27.1791 16.9439V20.1659C27.1791 20.5659 27.1481 20.6089 26.7361 20.6089H22.2671C21.9368 20.6211 21.6064 20.5905 21.2841 20.5179C20.8049 20.3936 20.3887 20.0965 20.1156 19.6837C19.8424 19.2709 19.7316 18.7716 19.8045 18.282C19.8773 17.7924 20.1287 17.3471 20.5103 17.0318C20.8918 16.7164 21.3765 16.5533 21.8711 16.5739H26.8951C26.9284 16.5716 26.9618 16.5716 26.9951 16.5739C27.0427 16.5802 27.0867 16.6029 27.1194 16.6381C27.1521 16.6734 27.1714 16.7189 27.1741 16.7669C27.1753 16.8187 27.1729 16.8705 27.1671 16.9219L27.1791 16.9439Z" fill="#052A3A"/>
<path d="M22.7021 19.3909H22.7311C22.8375 19.392 22.943 19.3717 23.0414 19.3311C23.1397 19.2905 23.2289 19.2306 23.3036 19.1548C23.3782 19.079 23.4368 18.9889 23.4759 18.89C23.515 18.7911 23.5338 18.6852 23.5311 18.5789C23.5264 18.3677 23.4399 18.1667 23.2897 18.0182C23.1395 17.8697 22.9375 17.7853 22.7263 17.783C22.5151 17.7807 22.3113 17.8605 22.1579 18.0057C22.0045 18.1508 21.9135 18.3499 21.9041 18.5609C21.8982 18.777 21.9776 18.9868 22.1251 19.1449C22.1991 19.223 22.2883 19.2851 22.3872 19.3274C22.4861 19.3697 22.5926 19.3913 22.7001 19.3909H22.7021Z" fill="#052A3A"/>
<path d="M6.66207 23.2539H14.1101C14.3792 23.2544 14.6371 23.3617 14.8272 23.5522C15.0173 23.7427 15.1241 24.0008 15.1241 24.2699C15.1243 24.4032 15.0983 24.5353 15.0475 24.6586C14.9966 24.7818 14.922 24.8938 14.8278 24.9882C14.7336 25.0826 14.6217 25.1574 14.4986 25.2085C14.3754 25.2596 14.2434 25.2859 14.1101 25.2859H6.66207C6.52874 25.2859 6.39672 25.2596 6.27357 25.2085C6.15041 25.1574 6.03854 25.0826 5.94436 24.9882C5.85017 24.8938 5.77553 24.7818 5.72468 24.6586C5.67384 24.5353 5.64781 24.4032 5.64807 24.2699C5.64807 24.0008 5.75484 23.7427 5.94495 23.5522C6.13505 23.3617 6.39296 23.2544 6.66207 23.2539Z" fill="#E4122C"/>
</g>
</svg>
