<svg width="27" height="28" viewBox="0 0 27 28" fill="none" xmlns="http://www.w3.org/2000/svg">
<g clip-path="url(#clip0_812_220)">
<path d="M13.863 12.311C13.445 11.3999 12.7628 10.6666 11.9046 10.1777C11.3545 9.8666 10.7604 9.68882 10.1442 9.62215L11.0464 8.68882C11.1124 8.62215 11.1785 8.53326 11.2225 8.42215C11.2665 8.33326 11.2885 8.22215 11.2885 8.11104C11.2885 7.99993 11.2665 7.88882 11.2225 7.79993C11.1785 7.71104 11.1124 7.62215 11.0464 7.53326C10.9804 7.44437 10.8924 7.39993 10.7824 7.35548C10.6943 7.31104 10.5843 7.28882 10.4743 7.28882C10.3643 7.28882 10.2542 7.31104 10.1662 7.35548C10.0782 7.39993 9.99019 7.4666 9.90217 7.53326L7.72368 9.77771C7.61366 9.88882 7.54764 10.0666 7.54764 10.2222C7.54764 10.3777 7.61366 10.5555 7.72368 10.6666L9.94618 12.911C10.1002 13.0666 10.2983 13.1333 10.5183 13.1333C10.6723 13.1333 10.8264 13.0888 10.9584 12.9999C11.0904 12.911 11.2005 12.7777 11.2445 12.6444C11.3105 12.4888 11.3105 12.3333 11.2885 12.1777C11.2665 12.0222 11.1785 11.8888 11.0684 11.7555L10.2322 10.911C10.6063 10.9777 10.9584 11.111 11.2885 11.2888C11.9046 11.6444 12.4107 12.1999 12.6968 12.8666C12.8948 13.2888 13.0049 13.7555 13.0049 14.2222C13.0049 14.6888 12.8948 15.1555 12.6968 15.5777C12.4767 16.0888 12.1247 16.5333 11.6846 16.8666C11.2445 17.1999 10.7384 17.4444 10.1882 17.5333C9.6161 17.6222 8.99997 17.5777 8.44985 17.3555C7.89972 17.1555 7.41561 16.7999 7.04153 16.3333C6.66745 15.8666 6.42539 15.311 6.33738 14.7333C6.24936 14.1555 6.31537 13.5333 6.53542 12.9777C6.60143 12.8222 6.57943 12.6444 6.51341 12.4888C6.4474 12.3333 6.31537 12.2222 6.16134 12.1555C6.0073 12.0888 5.83126 12.0888 5.67723 12.1555C5.52319 12.2222 5.39116 12.3555 5.34716 12.511C5.0831 13.2222 4.97307 13.9777 5.06109 14.7333C5.14911 15.4888 5.41317 16.1999 5.83126 16.8444C6.24936 17.4666 6.82148 17.9777 7.48163 18.3333C8.14178 18.6888 8.88994 18.8666 9.63811 18.8666C9.90217 18.8666 10.1442 18.8444 10.4083 18.7999C11.1564 18.6666 11.8606 18.3555 12.4547 17.8888C13.0489 17.4222 13.533 16.8222 13.841 16.111C14.1491 15.5555 14.3031 14.8888 14.3031 14.2222C14.3031 13.5555 14.1491 12.911 13.863 12.311Z" fill="#E4122C"/>
<path d="M26.978 9.02214V5.91103C26.978 4.33325 26.3839 2.86659 25.2836 1.75548C24.1834 0.644365 22.7311 0.0221428 21.1687 0.0221428C21.1467 0.0221428 21.1247 0.0221428 21.1247 0.0221428H5.8313C2.13447 -7.94195e-05 0 2.15548 0 5.88881V25.1999C0 25.7333 0.220049 26.2444 0.594132 26.6444C0.968215 27.0221 1.47433 27.2444 2.00245 27.2444C2.44254 27.2444 2.86064 27.0888 3.21271 26.8444L5.3912 25.1999C5.47922 25.1333 5.61125 25.0888 5.72127 25.0888C5.74328 25.0888 5.74328 25.0888 5.76528 25.0888C5.89731 25.0888 6.02934 25.1555 6.11736 25.2444L8.22983 27.3999C8.42787 27.5999 8.64792 27.7333 8.88998 27.8444C9.13203 27.9333 9.39609 27.9999 9.66015 27.9999C10.1883 27.9999 10.6944 27.7999 11.0905 27.3999L13.2249 25.2444C13.313 25.1555 13.445 25.0888 13.577 25.0888H13.599C13.7311 25.0888 13.8411 25.1333 13.9291 25.1999L16.1076 26.8444C16.4597 27.111 16.8778 27.2444 17.3178 27.2444C17.4059 27.2444 17.5159 27.2444 17.6039 27.2221C18.132 27.1555 18.6161 26.8666 18.9242 26.4221C19.1883 26.0666 19.3203 25.6444 19.3203 25.1999V13.0888H22.8851H22.9071C22.9951 13.111 23.0831 13.111 23.1932 13.111C23.2812 13.111 23.3912 13.111 23.4792 13.0888C24.4694 13.0221 25.3936 12.5555 26.0538 11.7777C26.7139 11.0221 27.044 10.0444 26.978 9.02214ZM17.868 25.2444C17.868 25.3555 17.824 25.4666 17.7579 25.5555C17.7139 25.6221 17.6699 25.6666 17.6039 25.6888C17.5379 25.7333 17.4719 25.7555 17.4059 25.7555C17.3839 25.7555 17.3619 25.7555 17.3399 25.7555C17.2958 25.7555 17.2518 25.7555 17.2078 25.7333C17.1418 25.711 17.0758 25.6888 17.0098 25.6444L14.8313 23.9999C14.4792 23.7333 14.0611 23.5999 13.621 23.5999C13.577 23.5999 13.533 23.5999 13.489 23.5999C13.0049 23.6221 12.5428 23.8444 12.2127 24.1777L10.0782 26.3333C9.96821 26.4444 9.83619 26.4888 9.70416 26.4888C9.57213 26.4888 9.41809 26.4221 9.33007 26.3333L7.2176 24.1777C7.01956 23.9777 6.79951 23.8444 6.55746 23.7333C6.3154 23.6221 6.05134 23.5777 5.78729 23.5777C5.34719 23.5777 4.9291 23.7333 4.57702 23.9777L2.39853 25.6221C2.31051 25.6666 2.22249 25.711 2.13447 25.711H2.11247C2.02445 25.711 1.95844 25.6888 1.87042 25.6444C1.7824 25.5999 1.71638 25.5333 1.65037 25.4444C1.60636 25.3555 1.56235 25.2666 1.56235 25.1555V5.91103C1.56235 2.95548 2.99267 1.51103 5.91932 1.51103H18.4621L18.3081 1.84437C18.066 2.31103 17.956 2.84437 17.956 3.35548L17.868 25.2444ZM24.9756 10.7777C24.5795 11.2444 24.0073 11.5333 23.3912 11.5999C23.3252 11.5999 23.2372 11.5999 23.1712 11.5999C23.1051 11.5999 23.0171 11.5999 22.9731 11.5999H19.3423V3.33325C19.3423 2.84437 19.5403 2.3777 19.8924 2.02214C20.2005 1.71103 20.5746 1.53325 20.9927 1.48881C21.0367 1.48881 21.1027 1.48881 21.1467 1.48881H21.1687C22.335 1.48881 23.4132 1.95548 24.2494 2.7777C25.0636 3.59992 25.5257 4.71103 25.5257 5.88881V9.06659C25.5697 9.68881 25.3716 10.311 24.9756 10.7777Z" fill="#052A3A"/>
</g>
<defs>
<clipPath id="clip0_812_220">
<rect width="27" height="28" fill="white"/>
</clipPath>
</defs>
</svg>
