<svg width="30" height="30" viewBox="0 0 30 30" fill="none" xmlns="http://www.w3.org/2000/svg">
<mask id="mask0_812_169" style="mask-type:luminance" maskUnits="userSpaceOnUse" x="0" y="0" width="30" height="30">
<path d="M30 0H0V30H30V0Z" fill="white"/>
</mask>
<g mask="url(#mask0_812_169)">
<path d="M28.8148 13.813C28.5842 11.1311 27.5779 8.57431 25.9188 6.4546C24.2597 4.33489 22.0195 2.74393 19.4715 1.87585C16.9235 1.00776 14.1779 0.900078 11.5698 1.56595C8.96163 2.23182 6.60369 3.64244 4.78366 5.6257C2.96363 7.60896 1.76022 10.0791 1.32026 12.7347C0.880299 15.3903 1.22282 18.1166 2.30602 20.5808C3.38922 23.045 5.16627 25.1407 7.42034 26.6121C9.6744 28.0835 12.308 28.867 14.9998 28.867C15.3918 28.867 15.7998 28.843 16.1998 28.817C19.6531 28.5173 22.8689 26.935 25.2136 24.382C27.5582 21.8289 28.8615 18.4903 28.8668 15.024C28.8668 14.623 28.8538 14.218 28.8148 13.813ZM24.5488 23.013C23.2302 24.5818 21.5449 25.8012 19.6425 26.5632C17.74 27.3251 15.6789 27.6061 13.6419 27.3813C11.6049 27.1565 9.65472 26.4327 7.96422 25.2741C6.27371 24.1156 4.89502 22.558 3.95027 20.7394C3.00553 18.9207 2.52388 16.8971 2.548 14.8479C2.57212 12.7986 3.10126 10.7869 4.08855 8.99101C5.07584 7.1951 6.49081 5.67039 8.20811 4.55195C9.92542 3.4335 11.8921 2.75585 13.9338 2.57901C14.2998 2.55301 14.6548 2.52901 15.0168 2.52901C17.39 2.53068 19.7134 3.20981 21.714 4.48655C23.7145 5.76329 25.3089 7.58459 26.3099 9.73636C27.3109 11.8881 27.6769 14.281 27.3647 16.6335C27.0526 18.9861 26.0753 21.2007 24.5478 23.017L24.5488 23.013Z" fill="#052A3A"/>
<path d="M16.3109 17.8839H22.3489C22.539 17.8839 22.7214 17.8083 22.8559 17.6739C22.9903 17.5394 23.0659 17.357 23.0659 17.1669V10.9249C23.0659 10.7347 22.9903 10.5523 22.8559 10.4179C22.7214 10.2834 22.539 10.2079 22.3489 10.2079C22.1587 10.2079 21.9763 10.2834 21.8419 10.4179C21.7074 10.5523 21.6319 10.7347 21.6319 10.9249V15.3319L15.8169 9.51588C15.751 9.44604 15.6718 9.39013 15.5839 9.35143C15.4961 9.31274 15.4014 9.29206 15.3054 9.29061C15.2094 9.28916 15.1141 9.30697 15.0251 9.34299C14.9361 9.37901 14.8553 9.43251 14.7873 9.50032C14.7194 9.56814 14.6657 9.64889 14.6295 9.73779C14.5933 9.8267 14.5753 9.92197 14.5766 10.018C14.5779 10.1139 14.5984 10.2087 14.6369 10.2966C14.6754 10.3846 14.7312 10.4639 14.8009 10.5299L20.7179 16.4469H16.3109C16.127 16.4566 15.9538 16.5365 15.8271 16.6701C15.7004 16.8036 15.6298 16.9807 15.6298 17.1649C15.6298 17.349 15.7004 17.5261 15.8271 17.6597C15.9538 17.7933 16.127 17.8742 16.3109 17.8839Z" fill="#052A3A"/>
<path d="M14.0569 7.75719C13.7765 7.47679 13.3219 7.47679 13.0415 7.75719C12.7611 8.03759 12.7611 8.4922 13.0415 8.7726L13.3986 9.12968C13.679 9.41008 14.1336 9.41008 14.414 9.12968C14.6944 8.84929 14.6944 8.39468 14.414 8.11428L14.0569 7.75719Z" fill="#E4122C"/>
<path d="M13.6998 12.1169H7.65877C7.56461 12.1169 7.47138 12.1355 7.38439 12.1715C7.2974 12.2076 7.21836 12.2604 7.15178 12.3269C7.0852 12.3935 7.03238 12.4726 6.99635 12.5596C6.96032 12.6465 6.94177 12.7398 6.94177 12.8339V19.0759C6.94177 19.2661 7.01731 19.4485 7.15178 19.5829C7.28624 19.7174 7.46861 19.7929 7.65877 19.7929C7.84893 19.7929 8.0313 19.7174 8.16577 19.5829C8.30023 19.4485 8.37577 19.2661 8.37577 19.0759V14.6689L14.1908 20.4839C14.3255 20.6201 14.5088 20.6972 14.7004 20.6983C14.892 20.6993 15.0761 20.6242 15.2123 20.4894C15.3485 20.3547 15.4256 20.1714 15.4266 19.9798C15.4276 19.7883 15.3525 19.6041 15.2178 19.4679L9.28877 13.5509H13.6998C13.8899 13.5509 14.0723 13.4754 14.2068 13.3409C14.3412 13.2065 14.4168 13.0241 14.4168 12.8339C14.4168 12.6438 14.3412 12.4614 14.2068 12.3269C14.0723 12.1925 13.8899 12.1169 13.6998 12.1169Z" fill="#E4122C"/>
<path d="M16.6109 20.8732C16.3305 20.5928 15.8759 20.5928 15.5955 20.8732C15.3151 21.1536 15.3151 21.6082 15.5955 21.8886L15.9526 22.2457C16.233 22.526 16.6876 22.526 16.968 22.2457C17.2484 21.9653 17.2484 21.5106 16.968 21.2302L16.6109 20.8732Z" fill="#E4122C"/>
</g>
</svg>
