    <svg
                width="27"
                height="25"
                viewBox="0 0 27 25"
                fill="none"
                xmlns="http://www.w3.org/2000/svg"
              >
                <path
               
                  d="M1.52402 10.1221L5.76314 5.63551L9.99022 1.13754C10.8994 0.175261 11.122 0.180653 12.1083 1.11258L12.1092 1.11339C13.2877 2.22688 14.4662 3.34037 15.656 4.44184C16.498 5.23738 16.5207 5.62304 15.7138 6.47706C15.2762 6.94014 14.8395 7.40393 14.4027 7.86773C13.0923 9.25916 11.7819 10.6506 10.4512 12.0228C10.0073 12.4686 10.0493 12.7132 10.4937 13.1103C11.9181 14.422 13.3233 15.7539 14.7285 17.0859C15.1969 17.5299 15.6653 17.9738 16.1344 18.417C16.8801 19.1217 16.8901 19.4726 16.1741 20.2304C14.9701 21.5288 13.754 22.8158 12.5373 24.0795C11.8668 24.7891 11.5039 24.7877 10.7822 24.1058C9.77223 23.1516 8.75969 22.1975 7.7467 21.2429C5.71938 19.3324 3.69028 17.4203 1.67663 15.5026C1.31138 15.1605 1.0175 14.7494 0.811955 14.2932C0.606413 13.8369 0.493282 13.3444 0.479092 12.8442C0.464904 12.3439 0.549939 11.8458 0.729287 11.3786C0.908636 10.9114 1.17874 10.4844 1.52402 10.1221ZM26.3297 12.0537C26.3607 13.3777 25.87 14.6609 24.9636 15.6264C24.0547 16.5851 22.8022 17.1435 21.4816 17.1788C20.1611 17.2141 18.8806 16.7233 17.9218 15.8144C16.9631 14.9056 16.4047 13.6531 16.3694 12.3325C16.3342 11.0119 16.8249 9.73141 17.7338 8.77268C19.6204 6.77596 22.8721 6.68373 24.7979 8.54891C25.7486 9.47098 26.2987 10.7298 26.3297 12.0537Z"
                  fill="#E1222F"
                />
              </svg>